<svg xmlns="http://www.w3.org/2000/svg" xmlns:xlink="http://www.w3.org/1999/xlink" viewBox="0 0 929.66 667"><defs><style>.cls-1{fill:none;}.cls-2{fill:url(#linear-gradient);}.cls-3{fill:url(#linear-gradient-2);}.cls-4{clip-path:url(#clip-path);}.cls-5{fill:#5fcbeb;}.cls-6{fill:#67a3d8;}.cls-7{fill:#c4e9f8;opacity:0.56;}.cls-10,.cls-12,.cls-15,.cls-20,.cls-22,.cls-23,.cls-25,.cls-26,.cls-28,.cls-29,.cls-36,.cls-7{isolation:isolate;}.cls-8{clip-path:url(#clip-path-2);}.cls-9{fill:#fff;}.cls-10,.cls-24{fill:#3292d0;}.cls-10{opacity:0.72;}.cls-11,.cls-26{fill:#94c4da;}.cls-12,.cls-31{fill:#1b69b3;}.cls-12{opacity:0.84;}.cls-13{fill:#31a9cd;}.cls-14{fill:#1a5a8d;}.cls-15{fill:#38a2d3;opacity:0.64;}.cls-16{fill:#124d75;}.cls-17{fill:#4bc5d7;}.cls-18{fill:#72b9ca;}.cls-19,.cls-20,.cls-36{fill:#c6e6f7;}.cls-20{opacity:0.6;}.cls-21{fill:#a1cde0;}.cls-22,.cls-29{fill:#34acd0;}.cls-22{opacity:0.39;}.cls-23,.cls-34{fill:#2b9bc9;}.cls-23{opacity:0.77;}.cls-25{fill:#135593;opacity:0.75;}.cls-26{opacity:0.73;}.cls-27{fill:#2c7ec2;}.cls-28{fill:#cfe8f9;opacity:0.41;}.cls-29{opacity:0.29;}.cls-30{opacity:0.46;}.cls-32{fill:#2e3e85;}.cls-33{fill:#123758;}.cls-35{fill:#1887ab;}.cls-36{opacity:0.83;}.cls-37{fill:url(#linear-gradient-3);}.cls-38{opacity:0.87;}</style><linearGradient id="linear-gradient" x1="464.83" y1="406.47" x2="464.83" y2="5.46" gradientTransform="matrix(1, 0, 0, -1, 0, 666.12)" gradientUnits="userSpaceOnUse"><stop offset="0" stop-color="#3dbad0"/><stop offset="0.52" stop-color="#226aa9"/><stop offset="1" stop-color="#15324d"/></linearGradient><linearGradient id="linear-gradient-2" x1="464.83" y1="662.08" x2="464.83" y2="409.05" gradientTransform="matrix(1, 0, 0, -1, 0, 666.12)" gradientUnits="userSpaceOnUse"><stop offset="0" stop-color="#f2f5f6"/><stop offset="1" stop-color="#bce6f6"/></linearGradient><clipPath id="clip-path"><path class="cls-1" d="M953.76,263.7s-203.43,7.25-418.6.62-311.94-2.69-311.94-2.69c-158.63,6.15-134.65,9.13-223.22,3V255s25.9-2.76,152.42.43c103.41,2.6,169.41,2.12,354.34-.36,66.32-.86,164.56.72,223.23,1.07,83.82.5,89-3.38,221.08,1Z"/></clipPath><clipPath id="clip-path-2"><path class="cls-1" d="M326.15,246.12l26.55-53.44,10.16,4.16,9.37-1.39,13.28-13.88s11.76-29.84,14.06-31.22,22.7-35.4,22.7-35.4,15.62-7.63,18-7.63,16.4,11.1,16.4,11.1l7-3.47,7-13.88,23.41-13.23,20.31,27.07,6.25,17.35,7.81,5.55,23.43,61.08,11.72,3.47,8.59-2.78,18.73,31.26L595.61,244l6.25,30.54-.78,21.52-16.4,20.82,1.59,47.93L573,371.78v39.56l6.25,36.09-21.87,34L531.6,541.12,485.52,596l-9.37-17.35-18.78-8.36.78-16-17.18-34-12.5-19.4-9.37-5.55L410.51,505l-33.58-17.35-21.87-22.9,5.47-27.07,17.18-24.29-15.62-22.21-15.63-18.75s.78-9.72.78-11.8V343.29l-22.65-28.45-7.81-33.31s-17.18-11.81-12.51-16.69S316,244,316,244Z"/></clipPath><linearGradient id="linear-gradient-3" x1="350.59" y1="104.93" x2="350.59" y2="41.1" gradientTransform="translate(-289.27 553.51)" gradientUnits="userSpaceOnUse"><stop offset="0"/><stop offset="0.19" stop-color="#131313"/><stop offset="0.44" stop-color="#252525"/><stop offset="0.7" stop-color="#303030"/><stop offset="1" stop-color="#333"/></linearGradient></defs><title>assberg_art_no_title_desktop</title><g id="Layer_1" data-name="Layer 1"><g id="sky_sea_background" data-name="sky sea background"><rect class="cls-2" y="258.24" width="929.66" height="408.76"/><rect class="cls-3" width="929.66" height="258.53"/></g><g id="ASSBERG"><g id="back_waterline" data-name="back waterline"><g class="cls-4"><path class="cls-5" d="M928.52,264.39s-178.18,6.54-393.38-.08-311.93-2.69-311.93-2.69c-158.63,6.14-177.47,6.44-266,.35l5-6.32s63.67-3.47,190.21-.29c103.41,2.6,169.41,2.13,354.34-.35,66.32-.87,164.56.71,223.23,1.06,83.82.51,66.31-3.95,198.46.39Z"/><path class="cls-6" d="M-52.9,273.07c9-2.05,50.79-13.82,121.9-11.71,62.05,1.9,192.81,11.71,192.81,11.71s307-9.86,361.25-11.71,92,0,129.66,8,41-6.16,84.29-7.39S947.84,274.3,947.84,274.3Z"/><path class="cls-7" d="M-29.63,243.18S115.55,259.81,141,260.43s150.7-16,192.82-13.55S736.09,261,761.55,259.81s98.63-1.85,142.94-10.47S-29.63,243.18-29.63,243.18Z"/></g></g><g id="Assberg_Final" data-name="Assberg Final"><g class="cls-8"><path class="cls-9" d="M326.15,246.12l26.55-53.44,10.16,4.16,9.37-1.39,13.28-13.88s11.76-29.84,14.06-31.22,22.7-35.4,22.7-35.4,15.62-7.63,18-7.63,16.4,11.1,16.4,11.1l7-3.47,7-13.88,23.41-13.23,20.31,27.07,6.25,17.35,7.81,5.55,23.43,61.08,11.72,3.47,8.59-2.78,18.73,31.26L595.61,244l6.25,30.54-.78,21.52-16.4,20.82,1.59,47.93L573,371.78v39.56l6.25,36.09-21.87,34L531.6,541.12,485.52,596l-9.37-17.35-18.78-8.36.78-16-17.18-34-12.5-19.4-9.37-5.55L410.51,505l-33.58-17.35-21.87-22.9,5.47-27.07,17.18-24.29-15.62-22.21-15.63-18.75s.78-9.72.78-11.8V343.29l-22.65-28.45-7.81-33.31s-17.18-11.81-12.51-16.69S316,244,316,244Z"/><polygon class="cls-10" points="345.97 323.8 336.44 369.95 385.52 390.46 429.47 375.08 410.43 313.55 345.97 323.8"/><polygon class="cls-11" points="353.77 340.26 376.53 293.67 340.38 259.46 313.53 258.72 301.21 265.17 315.56 297.41 324.77 324.15 343.19 344.87 353.77 340.26"/><polygon class="cls-12" points="576.83 446.55 556.09 346.99 456.24 315.12 337.02 467.28 425.14 516.57 576.83 446.55"/><polygon class="cls-13" points="347.24 343.29 383.61 254.89 450.66 322.01 418.81 380.13 347.24 343.29"/><polyline class="cls-14" points="360.52 437.68 400.72 423.02 377.7 413.39"/><polyline class="cls-15" points="355.05 464.75 394.44 464.99 400.72 423.02 421.52 431.58 418.81 380.13 346.46 372.44"/><polyline class="cls-16" points="458.15 554.28 483.43 532.77 457.72 478.69 428.47 500.84"/><polygon class="cls-16" points="476.11 578.57 483.43 532.77 452.61 558.71 451.6 575.98 476.11 578.57"/><polyline class="cls-17" points="304.28 264.87 331.42 269.98 340.16 289.91 324.59 314.84 316.78 281.52"/><polyline class="cls-18" points="362.86 196.85 374.09 208.78 396.47 210.18 372.23 195.46"/><polygon class="cls-19" points="385.51 181.58 397.87 187.45 396.47 210.18 361.74 188.65 385.51 181.58"/><polyline class="cls-20" points="340.16 289.91 356.95 276.28 365.34 299.71 387.05 339.73 410.82 362.18 433.27 413.02 443.84 420.28 454.4 416.32 482.79 354.25 482.13 288.22 469.91 255.29 418.15 237.11 391.22 238.16 374.09 208.78 358.11 191.37 352.71 192.69 326.15 246.13 357.65 254.94 331.42 269.98"/><path class="cls-21" d="M463.62,115l14.65,11.64s-10.84.7-12.59,1-9.13-9.22-9.13-9.22"/><polygon class="cls-19" points="514.38 114.95 494.07 87.89 490.19 167.86 525.51 196.54 522.02 207.73 563.59 202.4 561.18 229.41 590.92 230.86 572.18 199.63 514.38 114.95"/><polyline class="cls-21" points="520.63 132.31 507.33 134.29 513.27 143.03 519.22 143.03 527.26 158.42 528.44 137.86"/><path class="cls-19" d="M582.63,283l-38.93-28.1-13.29-16.79s-25.53-12.58-26.58-13.3-32.17-12.59-32.17-12.59l-20.29-60.13-22-5.6-7.34,2.8-24.16,38.12,20.28,49.66L530.4,325.84l52.23-42.79"/><polyline class="cls-18" points="429.34 146.53 444.39 159.85 451.37 152.13"/><path class="cls-22" d="M403.83,257.84l27.36-70.32,29.64,24s8.3-52.55,10.07-54.75,23.83-30,23.83-30l60,95.23-14.12,50.54L470,292.32l-22.06,44Z"/><polyline class="cls-23" points="531.56 541.09 532.32 465.18 515.15 466.5 539.58 422.93 537.06 337.52 557.41 294.83 601.86 274.58 606.35 297.3 583.43 402.97 586.78 457.76 531.56 541.09"/><polyline class="cls-24" points="584.67 316.92 556.09 346.99 561.37 359.54 585.8 357.56"/><polyline class="cls-25" points="572.96 371.75 561.37 405.76 572.59 395.85"/><polygon class="cls-25" points="539.58 422.93 529.01 412.36 514.49 408.4 506.56 420.94 486.09 422.26 457.72 478.69 473.16 574.51 485.48 595.92 536.13 539.07 539.58 422.93"/><polygon class="cls-26" points="493.03 241.72 564.1 312.8 511.57 385.42 496.89 446.45 451.31 371.51 459.81 284.21 493.03 241.72"/><polygon class="cls-27" points="459.04 509.8 485.3 469.62 506.16 532.97 459.04 509.8"/><path class="cls-11" d="M506.16,162.92c-3.09,0-51.76,61-51.76,61l22.4,10.82Z"/><polyline class="cls-15" points="466.86 345.5 488.59 363.12 510.7 342.65 518.43 356.63 539.78 326.9 503.08 290.51"/><path class="cls-28" d="M422.27,115,407.9,157.72l-10,29.72-1.4,22.73,2.05,47.09-27.68-18.42-30.6,42.47S315.27,247,316,244s37.41-19.9,41.07-20.63S422.27,115,422.27,115Z"/><path class="cls-29" d="M395.18,286s-8.3-52.55-10.07-54.75-23.83-30-23.83-30l-60,95.23L315.4,347"/><path class="cls-29" d="M607.67,271.66s-10.77,17-11.94,17.41l-15.84,6.25-18.62-44.25,13.51-15.23"/><path class="cls-29" d="M490.36,153.45s-10.77,17-11.94,17.41l-15.84,6.25L444,132.84l13.47-15.2"/><polygon class="cls-9" points="409.8 151.73 438.49 252.12 463.43 214.31 409.8 151.73"/><polygon class="cls-9" points="489.56 117.35 496.44 158.61 501.94 140.04 545.26 190.93 507.44 120.79 489.56 117.35"/><polygon class="cls-9" points="354.79 197.8 370.87 238.83 357.07 223.42 334.85 247.31 354.79 197.8"/><polygon class="cls-9" points="482 235.62 509.5 216.37 528.07 219.81 563.82 243.19 595.61 244.05 607.14 264.5 482.69 257.63 443.49 258.31 475.12 248 507.44 248.69 482 235.62"/></g></g><g id="Assberg_letters" data-name="Assberg letters"><g class="cls-30"><path class="cls-31" d="M502.38,512.36c.82-1.11,1.27-1.67,2.18-2.81l-1.49-1.37c1.09-1.3,1.67-2,2.83-3.28,1.92,1.85,2.87,2.8,4.75,4.7a74.39,74.39,0,0,0-6.53,9.5c-4.62-4-7-6-11.45-9.74,4.75-6.54,10.15-10.81,17-17.85,3,3.32,4.44,5.11,7.23,8.73-1,1.34-1.53,2-2.63,3.44-2-2.27-3-3.39-5-5.57-4.23,4.52-6.72,7-10.24,11.34C500.39,510.6,501.05,511.19,502.38,512.36Z"/><path class="cls-31" d="M518.89,502.84c2.34,3.16,3.47,4.77,5.63,7.93-.6,1.32-.93,2-1.62,3.39-1.4-1.8-2.12-2.71-3.59-4.52-.87,1.42-1.33,2.14-2.25,3.6,1.56,1.73,2.32,2.59,3.82,4.3-.73,1.42-1.11,2.14-1.83,3.58-1.63-1.7-2.46-2.56-4.15-4.28-1.11,1.82-1.65,2.73-2.61,4.5,2,1.88,3,2.82,5,4.67-.63,1.42-.92,2.12-1.42,3.47-3.6-3.26-5.48-4.94-9.27-8.26C510.18,514.3,514.21,509.84,518.89,502.84Z"/><path class="cls-31" d="M531.44,525.37l-2.1-2.77c-1.7,5.85-3.07,9.38-4.4,15.25l-3.49-3.23c1.64-5.84,3.28-9.36,5.44-15.26l-2.34-3.06c.62-1.39.91-2.07,1.43-3.38,2.56,3.79,3.77,5.67,6.15,9.18C531.9,523.35,531.75,524,531.44,525.37Z"/></g><g class="cls-30"><path class="cls-16" d="M472.17,521.55c-3.72-3.52-5.34-5.11-7.6-7.35,3.2-.35,5.11-.49,8.78-1,.74.8,1.17,1.25,2.13,2.24-1.39.21-2.09.31-3.45.49l1.67,1.66c1.73-.27,2.63-.41,4.4-.73a21.79,21.79,0,0,1,3.43-5.11c4.19-1.13,6.08-1.89,7.84-4.31,1.73,2,2.92,3.26,5.6,6-1.48,1.73-2.64,2.4-5.26,3.54-1-1-1.44-1.48-2.29-2.38a17.09,17.09,0,0,0,2.25-1.06c-.61-.65-.9-1-1.44-1.55a17,17,0,0,1-2.83,1.25,35.86,35.86,0,0,0-2.34,6C478.6,520.39,476.08,520.74,472.17,521.55Z"/><path class="cls-16" d="M505.27,523.62c-4.87,6-11.57,7.46-19,10.75-5.1-4.4-7.61-6.71-11.9-10.72,8.86-2.13,17.27-2.62,22.3-8.44C499.85,518.36,501.67,520.13,505.27,523.62Zm-19.43,5.56c5.59-1.91,9.1-2.9,13.5-6l-2.71-2.64c-4.57,3-8.3,3.87-14.21,5.55,1.35,1.19,2,1.82,3.44,3.09Z"/><path class="cls-16" d="M515.16,533l3.42,3.2c-3.74,6-7.62,8.6-12.83,13-1.6-1-2.43-1.56-4.11-2.74a111.55,111.55,0,0,0,9.47-7.45,63.09,63.09,0,0,1-12.87,5l-1.39-1c2.47-3.61,4.56-5.39,7.8-9.45-4.34,3.08-7.18,4.3-11.29,6.7-1.72-1.39-2.59-2.1-4.3-3.54,7.09-3.53,13.4-5.16,18.17-11.23L511,529c-1.39,3.86-2.71,5.56-5,8.84A28.16,28.16,0,0,0,515.16,533Z"/><path class="cls-16" d="M520.2,537.74c2.45,2.27,3.54,3.26,5.14,4.64-.49.94-.75,1.41-1.31,2.36a35.32,35.32,0,0,1-3-2.13c-.71,1-1.09,1.58-1.89,2.6a24.53,24.53,0,0,0,3.26,1.87c-.62.94-.94,1.4-1.62,2.31a20.29,20.29,0,0,1-3.62-1.71c-1.06,1.22-1.62,1.82-2.72,3a17.37,17.37,0,0,0,4.4,1.62c-.73.84-1.1,1.25-1.85,2-3-.45-4.79-1.27-8.71-3.49C513.21,546.31,516.68,543.58,520.2,537.74Z"/></g><g class="cls-30"><path class="cls-31" d="M485.6,382c-1.66,1-2.48,1.49-4.11,2.42a54.37,54.37,0,0,0,3.14,5.09c-1.9,1.09-2.86,1.65-4.81,2.79l-8-13.59c.82-1.69,1.25-2.58,2.17-4.35a52.66,52.66,0,0,0,6.91-4.67c2.27-.49,3.4-.76,5.62-1.09,2.71,5.69,3.72,11.59,6.77,16l-4.7,2.64A31.22,31.22,0,0,1,485.6,382Zm-5.88-.76c1.66-1,2.5-1.56,4.21-2.7-1-2.14-1.52-3.24-2.56-5.12a53.13,53.13,0,0,1-4.37,3.05c1.09,1.82,1.63,2.81,2.72,4.77Z"/><path class="cls-31" d="M508,376.44c-4.76,2.65-7.11,3.94-11.87,6.58a22.58,22.58,0,0,1-2.44-5.69c1.95-1.25,2.92-1.89,4.87-3.17.3,1.22.45,1.81.77,2.89l2.92-1.75c-.37-1.5-.54-2.36-.87-4.13a30.45,30.45,0,0,0-9.57-.51c-1.11-3.64-1.65-5.5-2.93-7.48,5.84-5,8.91-7.94,14.7-12.85.63,1.6.85,3.17,1.29,6.6-1.93,1.56-2.9,2.37-4.85,4-.21-1.12-.31-1.65-.53-2.62l-3.63,3.15c.31,1.1.46,1.72.76,3a21.63,21.63,0,0,1,9.38,1C506.57,370.89,506.87,373.84,508,376.44Z"/><path class="cls-31" d="M522.91,367.93c-5,2.93-7.41,4.29-12.2,7-.73-1.91-1-3.77-1.38-7.71,1.93-1.21,2.9-1.8,4.81-2.93.12,1.65.19,2.44.36,3.84l2.91-1.62c-.2-1.85-.28-2.95-.4-5.24-3.21-1.85-4.82-2.89-8.35-3.78-.44-5.33-.62-8-1.38-10.2,5.65-4.54,8.38-6.56,13-8.4.48,1.15.58,2.9.77,6.85a42,42,0,0,0-4.28,2.43c-.07-1.41-.11-2.07-.21-3.24-1.29.82-1.94,1.26-3.28,2.22.13,1.42.19,2.24.29,4,3.39,1.12,4.91,2.37,8,4.7C521.82,362.26,522,365.84,522.91,367.93Z"/></g><g class="cls-30"><path class="cls-16" d="M370.79,436l3.34-.64c1.75,4.06,2.64,6.06,4.46,10l-2.73.61c-1.12-2.48-1.67-3.73-2.76-6.26.23,2.7.34,4.05.58,6.75l-.88.2c-2-2.3-3-3.48-4.9-5.87,1.06,2.57,1.6,3.85,2.69,6.38l-2.73.64c-1.73-4.1-2.58-6.18-4.23-10.4l3.35-.67c1.61,1.92,2.42,2.87,4.06,4.73Z"/><path class="cls-16" d="M383.83,433.59c1.84,3.92,2.77,5.84,4.68,9.64-3.25.68-4.88,1-8.15,1.74-1.84-3.92-2.74-5.9-4.5-9.94C379.06,434.44,380.65,434.15,383.83,433.59Zm1,8.45c-1.17-2.43-1.76-3.65-2.9-6.13l-2.44.46c1.13,2.5,1.71,3.73,2.87,6.18Z"/><path class="cls-16" d="M390.66,432.43l2.86-.47c1.22,3.88,1.84,5.81,3.09,9.62l-4.52.91c-2.67-3.59-4-5.43-6.56-9.2l2.91-.49c1.88,2.88,2.84,4.3,4.78,7.09C392.19,436.93,391.67,435.44,390.66,432.43Z"/><path class="cls-16" d="M395.21,431.7l6.53-1,1,1.72L399,433l1,1.76,3.57-.59,1,1.68-3.56.61,1.21,2.17,3.86-.69,1,1.68c-2.7.49-4.06.75-6.77,1.27C398.13,437.28,397.15,435.44,395.21,431.7Z"/><path class="cls-16" d="M414.57,428.92l2.83-.36c.39,3.61.59,5.43,1,9.07l-2.89.49c-.13-1.41-.2-2.12-.33-3.53-2.42-1.93-3.62-2.93-6-5l2.81-.38c1.15,1,1.72,1.51,2.88,2.51C414.73,430.63,414.68,430.06,414.57,428.92Z"/><path class="cls-16" d="M426.69,427.49c2.22,3.25,3.35,4.85,5.64,8-3.12.45-4.68.69-7.83,1.18-2.22-3.25-3.31-4.91-5.47-8.28C422.11,428,423.64,427.84,426.69,427.49Zm1.88,6.9c-1.42-2-2.12-3-3.51-5.08l-2.34.29c1.38,2.08,2.07,3.11,3.48,5.14Z"/><path class="cls-16" d="M441.76,434.16c-3.09.4-4.64.61-7.75,1.06-2.31-3.1-3.44-4.69-5.68-7.91L431,427c1.83,2.58,2.76,3.85,4.64,6.34l2.24-.29c-1.89-2.47-2.83-3.72-4.68-6.27l2.68-.26C438.21,429.66,439.38,431.18,441.76,434.16Z"/><path class="cls-16" d="M444.66,430.84l-.7.08c.86,1.07,1.3,1.6,2.17,2.65l-2.71.34c-2.05-2.54-3.07-3.83-5.07-6.46l1.1-1.25,5.39-.45c1.52,1.88,2.29,2.81,3.84,4.65l-1.45.15c1.56,1,2.34,1.47,3.92,2.42l-2.71.32C446.91,432.37,446.16,431.84,444.66,430.84Zm-1.33-3.46-2,.19,1.55,2,2.05-.21Z"/></g><g class="cls-30"><path class="cls-32" d="M422.37,475.84c-.34,1.1-.5,1.65-.83,2.74l4.27.82c2.14,2.23,3.2,3.35,5.31,5.6-.52,1.5-.78,2.25-1.27,3.73-5,1.31-7.47,1.94-12.38,3.16-6.88-6.81-10.38-10.15-17.54-16.7.37-1.48.56-2.23.95-3.74,5.25-1.52,7.9-2.3,13.24-3.91C417.45,470.84,419.1,472.53,422.37,475.84ZM412,473l-5.23,1.5c1.85,1.75,2.76,2.63,4.59,4.4l5.17-1.44c-1.81-1.75-2.72-2.66-4.54-4.42Zm11.38,12.57c-1.62-1.66-2.43-2.48-4.06-4.13l-4.19,1.14c1.65,1.63,2.47,2.44,4.11,4.08Z"/><path class="cls-32" d="M443.94,479.67l-4.93,1.4c2.47,2.75,3.69,4.13,6.11,6.92l-5.69,1.52c-6.31-7-9.53-10.49-16.11-17.27.58-1.82.88-2.73,1.49-4.58,3.16-1,4.75-1.45,8-2.44,3.07.73,4.61,1.1,7.65,1.86,6.27,7.07,9.34,10.66,15.36,18L450,486.69C447.57,483.84,446.37,482.45,443.94,479.67Zm-8.51-2.55,5-1.45c-2.17-2.45-3.27-3.66-5.47-6.08l-5.06,1.52C432.11,473.5,433.27,474.7,435.43,477.12Z"/><path class="cls-32" d="M449.6,455.93c3.08.73,4.2.26,6.86.23,4.39,4.91,6.4,7.12,10,11.07-.49,2.08-.71,3.15-1.1,5.37-3.63,4.54-5.16,7.31-10.2,8.76q-8.9-10.85-18.35-21.27C441.92,458.45,444.47,457.62,449.6,455.93Zm2,4.56-5,1.62c4.54,5.28,6.78,8,11.18,13.37,2-.58,2.16-2.41,3.6-4.05-3.62-4-5.3-5.59-9.78-10.95Z"/><path class="cls-32" d="M476.22,454.08c-1.78,1.33-2.65,2-4.37,3.43,1.53,1.62,2.26,2.38,3.62,3.79-1.87,1.88-2.78,2.85-4.57,4.83-3.93-4.17-6.16-6.6-11.16-12.14a53,53,0,0,1,2.07-5.14c3.11-1.64,4.7-2.41,7.94-3.87,2.71,0,4,0,6.62-.13,3.77,4,4.79,4.41,8.21,8.43-2.64.48-3.14,2.33-5.09,4.14C478.27,456.18,477.61,455.52,476.22,454.08Zm-6.65,1c1.8-1.3,2.72-1.93,4.58-3.16l-3.45-3.66c-2,1.07-3,1.62-4.89,2.76,1.56,1.69,2.32,2.51,3.76,4.05Z"/><path class="cls-32" d="M505.61,449.3c-6.91,1.36-10.33,2-17.12,3.26-1.24-1.51-1.87-2.25-3.15-3.73l6.6-1.3,1.21,1.49,4.08-.8-1.56-2c-5.21-.37-8.39-1.65-13-.68-1.52-1.54-2.35-2.38-4.11-4.23,6.47-2.44,10.18-2.8,17.24-4.41l3,3.6-6.21,1.34-1.08-1.27-4.44,1,1.35,1.53c5.31.29,7.95.45,13.18.8C503.27,446,504,447.11,505.61,449.3Z"/><path class="cls-32" d="M527.12,444.9c-7.07,1.5-10.57,2.22-17.51,3.6-1.12-1.62-1.69-2.42-2.84-4l6.75-1.43,1.09,1.6,4.17-.88c-.55-.85-.83-1.27-1.4-2.11-5.21-.37-7.83-.54-13.11-.85-1.53-2-2.31-3-3.9-4.95,7.09-1.63,10.67-2.47,17.89-4.21,1.09,1.53,1.62,2.3,2.67,3.86L514.66,437l-1-1.36-4.54,1,1.22,1.64c5.31.29,7.94.46,13.17.81C525,441.4,525.72,442.56,527.12,444.9Z"/></g><g class="cls-30"><path class="cls-16" d="M386.92,463.54l-8.23,2.3,2.49,8.59-9.78,3.2-6.25-23.32c2.49-2.33,3.74-3.45,6.22-5.63l12.67-2.1c3.45,1.06,5.18,1.55,8.64,2.45l6.6,19.48-9.84,3.22Zm-9.65-2.7,8.2-2-2.24-7.21-8.17,1.61Z"/><path class="cls-16" d="M430.27,458.35l-25.16,8.22-2.47-6.91L412.2,457l1,2.53,5.92-1.76-1.31-3.15c-6.89-.32-10.32-.61-17.16-1.42l-3.19-8.89,24.2-4,2.47,5.4-8.58,1.84-.87-2.08-6.21,1.22,1,2.68c6.85.75,10.29,1,17.19,1.25Z"/><path class="cls-16" d="M461.27,448.23l-25.15,8.22-2.62-5.34,9.56-2.65,1,1.91,5.92-1.76-1.38-2.34c-6.93.19-10.39.15-17.28-.16L428,439.25l24.2-4,2.61,3.89L446.18,441l-.92-1.54-6.21,1.22,1.11,2c6.9.24,10.36.24,17.3,0Z"/></g><g class="cls-30"><path class="cls-33" d="M533.44,505.32l-3.22-4.9-.87,1.69-3.83-5.85c1.25-2.2,1.89-3.3,3.16-5.48,4.36,6.59,6.51,9.81,10.47,15.82-2.26,5.17-3.37,7.79-5.58,13-7.41-11.63-14.91-23.21-22.37-34.81,2.71-3.55,4.08-5.33,6.91-8.87,1.63,2.51,2.45,3.76,4.09,6.25-1.67,2.39-2.49,3.59-4.12,6,5.6,8.62,8.42,12.91,13.6,20.9Z"/><path class="cls-33" d="M536.07,488.3l-.58,1c2.82,4.19,4.2,6.24,6.82,10.15-.79,1.75-1.18,2.64-2,4.41l-17.28-26c-.45-2.77-.66-4.13-1-6.8,2.16-2.61,3.26-3.9,5.5-6.44,4.69,7.17,7.16,10.82,11.83,17.67l-1.22,2.12c3.29,3,4.89,4.43,7.89,7-.82,1.73-1.23,2.6-2,4.35C541,493,539.38,491.51,536.07,488.3Zm-7.56-14.94c-.78,1-1.17,1.57-1.94,2.62,2.09,3.17,3.15,4.74,5.22,7.85.71-1.15,1.07-1.73,1.79-2.87Z"/><path class="cls-33" d="M537.63,454c6.1,9.52,9.68,14.48,15.71,23-2.49,4.59-3.69,7-6,11.81q-9.06-13.06-17.82-26.33C532.65,459,534.27,457.28,537.63,454Zm10.64,22.82c-4.09-5.85-6.28-9-10.45-15.26-.94,1.1-1.41,1.66-2.34,2.78,4.35,6.54,6.62,9.82,10.85,15.91C547.08,478.84,547.46,478.17,548.27,476.84Z"/><path class="cls-33" d="M558.68,467.7c-.86,1.4-1.28,2.12-2.12,3.56-6.44-6.56-10.24-10.69-17.12-19,1.19-1.12,1.79-1.67,3-2.75,3.81,4.74,5.84,7.1,9.73,11.43-2.9-5.61-4.37-8.49-6.78-14,.87-.73,1.31-1.09,2.19-1.81,3.57,4.21,5.49,6.3,9.18,10.06-2.67-5-4-7.53-6.13-12.43,1.27-1,1.91-1.42,3.2-2.32,3,7.82,5.46,12.12,9.6,19.88-.9,1.31-1.34,2-2.22,3.33-3.73-3.54-5.76-5.6-9.74-9.93C554.27,459.4,555.79,462.27,558.68,467.7Z"/><path class="cls-33" d="M562.52,435.5c1.27-.71,1.9-1.05,3.19-1.71a62.49,62.49,0,0,0,8.73,12.77c-1.05,1.11-1.57,1.68-2.6,2.86a59.8,59.8,0,0,1-8.63-5.33c2.37,3.49,3.68,5.21,6.13,8.32-1,1.17-1.42,1.77-2.34,3a125.34,125.34,0,0,1-10.94-15.91c1.28-.87,1.93-1.29,3.24-2.1a71.38,71.38,0,0,0,8.41,6.26A66.18,66.18,0,0,1,562.52,435.5Z"/></g><g class="cls-30"><path class="cls-13" d="M481.27,459.72c2.21.65,3.27,1,5.28,1.61a154,154,0,0,1,12.91,25.93,42.9,42.9,0,0,0,.42,5.54c-1.24,1.89-1.82,2.84-2.9,4.74a238.33,238.33,0,0,0-24.83-29.1A68.37,68.37,0,0,1,481.27,459.72Zm5.86,9.8-3.47,1.66c4.93,7.42,7.22,11.12,11.45,18.5.66-.71,1-1.06,1.67-1.77-3.51-7.33-5.39-11-9.6-18.39Z"/><path class="cls-13" d="M485.74,456l15.16-4.19a73.39,73.39,0,0,1,2.94,8.65c-2.54,1.06-3.79,1.59-6.26,2.66.65,2.25,1,3.38,1.55,5.63,2-1,3-1.55,5.09-2.58.24,2.17.34,3.26.51,5.42-1.71,1-2.56,1.56-4.21,2.6.64,2.8.94,4.2,1.48,7,1.33-1.15,2-1.73,3.41-2.88.06,2.19.08,3.29.08,5.47-1.8,2-2.66,3.06-4.26,5.11A149.78,149.78,0,0,0,485.74,456Z"/><path class="cls-13" d="M504.52,451.84c6.79-1.62,10.15-2.44,16.79-4.07-1,3.16-1.58,4.75-2.65,7.91-2.59,1.06-3.88,1.59-6.41,2.65-.2,2.2-.32,3.31-.59,5.51,2.06-1,3.11-1.54,5.23-2.57-.6,2.12-.91,3.19-1.58,5.31-1.77,1-2.64,1.55-4.35,2.59-.42,2.74-.66,4.11-1.19,6.84,1.39-1.15,2.1-1.72,3.56-2.87-.78,2.14-1.19,3.21-2,5.35-1.91,2-2.81,3.05-4.52,5.1C507.77,472.74,506.27,462.51,504.52,451.84Z"/><path class="cls-13" d="M512.54,477.21a126.35,126.35,0,0,0,9.05-24.78c1.75-2.36,2.68-3.54,4.65-5.88,5.16-1.07,7.68-1.6,12.61-2.68-5.39,8.22-8.34,12.32-14.72,20.49-2.21,1.43-3.29,2.14-5.39,3.58a37.78,37.78,0,0,1-3.12,6.19C514.35,475.36,513.73,476,512.54,477.21Zm17.88-26.3-3.77,1.47c-1.91,4.13-2.93,6.2-5.09,10.32l2.8-1.53c2.54-4.1,3.75-6.15,6-10.26Z"/></g><g class="cls-30"><path class="cls-13" d="M422.94,299.63c-4.39-6-6.6-9-11.05-15q12.38-9.79,24.83-19.38l2.95,5.09c-7.8,6.35-11.67,9.54-19.34,15.93l3,4.29c7.41-6.45,11.14-9.67,18.67-16.09l2.89,5Q433.87,289.47,422.94,299.63Z"/><path class="cls-13" d="M436.22,308.89l3-3.21-1.44-2.14,3.49-3.7,4.69,7.3c-3.86,4.37-5.78,6.56-9.58,10.94-4.42-6.11-6.64-9.16-11.13-15.29q10.62-10.21,21.4-20.26c3.13,5.5,4.68,8.25,7.75,13.73l-3.61,4c-2.05-3.47-3.09-5.21-5.17-8.68-5.09,5.08-7.62,7.62-12.64,12.71Z"/><path class="cls-13" d="M438.72,321.31c7.06-8.46,10.64-12.69,17.9-21.1l2.84,5.11c-5.55,6.9-8.29,10.35-13.71,17.28,2,3,3,4.44,5.07,7.39l-2.9,4.13C444.27,329,442.42,326.44,438.72,321.31Z"/><path class="cls-13" d="M470.4,325.36l2.78,5.18a192.09,192.09,0,0,1-17.75,14.18l-3.83-5.41c3.09-2.08,4.59-3.13,7.52-5.25,2.09-7.51,3.27-11.22,5.91-18.59l2.79,5.13c-1.25,3.64-1.85,5.47-3,9.14C467.13,328,468.27,327.13,470.4,325.36Z"/></g><g class="cls-30"><path class="cls-34" d="M466.53,267l7.75-2.71,9.2,24.83-5.55,3.33-6.13-16.18c.55,7.31.89,11.08,1.69,18.85l-1.79,1.07c-4.42-5.72-6.7-8.7-11.38-14.89l6.95,17.57-5.51,3.31L450,272.76l7.71-2.7c4,4.94,5.88,7.33,9.65,11.93C466.93,275.84,466.77,272.84,466.53,267Z"/><path class="cls-34" d="M491.27,258.3l6.83-2.39a218.05,218.05,0,0,0-2.74,26l-6.08,3.65c.14-4.48.25-6.66.52-10.91-4.41-4.4-6.73-6.81-11.53-11.81l6.76-2.36c2.2,2.41,3.28,3.58,5.41,5.85C490.75,263.05,490.92,261.44,491.27,258.3Z"/></g><g class="cls-30"><path class="cls-34" d="M479.68,313.1l-3.55,2.11c1.7,2.82,2.53,4.15,4.58,5.54l-3.41,2c-5.94-3.09-6.56-10.27-12.61-16,.17-1.89.26-2.79.42-4.4l6.12-3.69a29.43,29.43,0,0,1,6,.45c5,6.37,6.72,13.1,11.15,17.32-1.82,1-2.7,1.52-4.37,2.47C482.16,317.31,481.35,316,479.68,313.1Zm-6-2.16,3.58-2.16a42.23,42.23,0,0,0-4-6.39l-3.7,2.25a35.86,35.86,0,0,1,4.12,6.29Z"/><path class="cls-34" d="M503.52,308.3c-4.92,2.47-7.56,3.89-12.37,6.54a26.1,26.1,0,0,1-4-5.62c1.85-1.07,2.79-1.6,4.68-2.67.66,1.07,1,1.59,1.62,2.55l3-1.63c-.84-1.26-1.28-2-2.17-3.4-4.39-.56-6.55-.92-10.77-1.54-2.19-3.7-3.33-5.61-5.78-7.86l11.68-7.05c1.48,1.88,2.35,3.14,4.12,5.78l-4.06,2.44c-.62-.94-.93-1.39-1.53-2.25L485,295.34c.74,1,1.12,1.61,1.86,2.77,4.29.55,6.49.92,10.93,1.62C500.35,303.64,501.64,305.69,503.52,308.3Z"/><path class="cls-34" d="M517.27,302.23a89.49,89.49,0,0,0-10.89,4.68l-4-6.1c1.85-1,2.76-1.45,4.53-2.35.73,1.12,1.08,1.67,1.74,2.71,1.09-.53,1.63-.78,2.68-1.27-.84-1.4-1.32-2.15-2.29-3.67-4.23-1-6.52-1.46-10.9-2.17-2.48-3.73-3.75-5.64-5.63-8.26l11.68-7.05a37.91,37.91,0,0,0,3.4,6.69l-3.8,2.12c-.63-1-.94-1.48-1.51-2.42l-2.92,1.7c.72,1.12,1.11,1.71,1.9,2.91a68.06,68.06,0,0,1,10.63,2.58C514.54,296.6,516,298.84,517.27,302.23Z"/></g><g class="cls-30"><path class="cls-34" d="M348.52,295.6c.88,1.37,1.33,2,2.24,3.39a173,173,0,0,1,12.52-12c.94,1.72,1.42,2.58,2.39,4.28-9.94,8.81-18.51,19.34-29.9,26.39-1.26-1.42-1.88-2.14-3.12-3.63,5.1-2.71,7.54-4.88,12.4-9.44-1-1.3-1.42-2-2.35-3.29-5,4.63-7.46,6.82-12.69,9.47-1.22-1.54-1.83-2.33-3-4,12.48-6.81,21.9-18.27,32.08-27.92.87,1.76,1.32,2.63,2.23,4.36C356.09,287.71,353.59,290.5,348.52,295.6Z"/><path class="cls-34" d="M352.89,318.84c-1-1.15-1.51-1.73-2.51-2.91a51.17,51.17,0,0,1-9.55,7.21c-1.28-1.33-1.91-2-3.18-3.39,9.31-5.7,17-14.24,24.78-21.8a54.86,54.86,0,0,1,6.62-.91c1.32,2.21,2,3.32,3.36,5.51-1,2.7-1.5,4.08-2.43,6.82-7.34,6.78-14.75,14.29-23.2,19.72-1.3-1.26-2-1.9-3.24-3.2A53.07,53.07,0,0,0,352.89,318.84Zm2.92-8c1,1.23,1.44,1.85,2.4,3.06,3.26-3.11,4.88-4.74,8.17-7.74-.91-1.34-1.36-2-2.26-3.35C360.78,305.92,359.13,307.61,355.81,310.84Z"/><path class="cls-34" d="M348.71,330.93c9.94-6.53,18-15.36,27.26-22.72,1.06,1.66,1.59,2.5,2.66,4.16-7.51,5.66-14.25,12.22-21.58,18.1,1.74,1.76,2.62,2.63,4.37,4.37a52.81,52.81,0,0,1-4.91,3.32C353.38,335.32,351.81,333.89,348.71,330.93Z"/><path class="cls-34" d="M372.39,335.38a87.15,87.15,0,0,1-10.7,7.51l-3.26-3c8.8-5.27,13.11-10.21,22-16.77a45.69,45.69,0,0,1,5.36.25c1.75,2.71,2.62,4.07,4.36,6.81-1.86,1.09-2.78,1.69-4.64,2.94-1.43-2-2.15-3.06-3.59-5.08-1.93,1.4-2.89,2.15-4.82,3.64l3.43,4.36L376,339.38C374.52,337.84,373.81,337,372.39,335.38Z"/><path class="cls-34" d="M381.83,339.18c1.69,2.15,2.53,3.24,4.19,5.43l-4.39,2.8c-1.72-2-2.59-3.06-4.33-5.06Z"/><path class="cls-34" d="M387.18,357.05c-1-1.22-1.47-1.83-2.47-3-2.94,1.64-4.41,2.45-7.28,3.87-1.25-1.28-1.88-1.91-3.14-3.15,7.56-3.9,11.52-6.94,19.21-11.28a54,54,0,0,1,5.61,1.38c1.35,2.29,2,3.44,3.33,5.75-.59,2-.87,2.95-1.43,4.89-7.1,3.29-10.91,5.37-17.89,8.48-1.22-1.36-1.83-2-3.07-3.35C382.86,359.3,384.27,358.55,387.18,357.05Zm1.79-5.43c1,1.28,1.44,1.93,2.38,3.23,2.56-1.36,3.85-2,6.38-3.32-.89-1.42-1.34-2.13-2.24-3.54-2.59,1.39-3.9,2.14-6.52,3.62Z"/><path class="cls-34" d="M392.36,375.3c-2.88-3.91-4.38-5.76-7.45-9.31,2.54-1.09,3.85-1.68,6.47-2.86,1.1,1.48,1.65,2.22,2.73,3.74l-2.5,1c.68.91,1,1.37,1.69,2.3l3.22-1.25c.35-3.27.56-5,1-8.47,3.38-1.54,5.07-2.33,8.32-3.71,2.4,4.49,3.55,6.76,5.71,11.37-2.17.88-3.3,1.32-5.6,2.17-.84-1.57-1.27-2.34-2.14-3.88l2.1-.84c-.61-1.14-.92-1.7-1.55-2.83l-2.63,1.1c-.47,3.52-.69,5.22-1.08,8.52C397.27,373.56,395.58,374.14,392.36,375.3Z"/><path class="cls-34" d="M400.77,388.18A111.64,111.64,0,0,0,394,377.59c2.3-.8,3.5-1.19,5.89-2,1,1.63,1.5,2.45,2.47,4.14l-2.27.68c.62,1,.92,1.53,1.52,2.57l2.91-.81c.35-3.25.55-4.89,1-8.29,3.07-1,4.59-1.59,7.42-2.75,2.08,4.64,3.05,7,4.8,11.75a31,31,0,0,1-4.83,1.85c-.71-1.67-1.08-2.5-1.83-4.14.75-.24,1.12-.37,1.86-.63-.52-1.2-.79-1.8-1.33-3-.92.33-1.39.49-2.34.8-.45,3.44-.67,5.11-1.07,8.43C405.18,387,403.63,387.32,400.77,388.18Z"/></g><g class="cls-30"><path class="cls-27" d="M480.27,341.41l-1.52,4.5,2.62.92c.72,3.61,1.23,6.8,2.1,11.58l-2.12,6.79c-4.18,1.4-6.24,2.44-10.49,3.6-2.65-14.07-3.72-19.38-5.39-26.5,1-1.61,1.46-2.41,2.43-4a40.46,40.46,0,0,0,10.16-6.81C478.89,334.64,479.33,336.63,480.27,341.41Zm-5.72-2.57a37,37,0,0,1-4.11,2.43c.46,2,.71,3.16,1.23,5.67a36.31,36.31,0,0,0,4.12-2.33C475.27,342.11,475,341,474.55,338.84ZM477.64,358c-.59-3.08-.87-4.52-1.41-7.2a34.45,34.45,0,0,1-3.4,1.79c.53,2.65.81,4.07,1.4,7.12a33.44,33.44,0,0,0,3.4-1.67Z"/><path class="cls-27" d="M487.36,363.13c-2.06-11.34-3.88-22.84-6.61-34a62.48,62.48,0,0,0,4.34-4.57c2.37,9.43,3.72,19.25,5.44,28.8a85.7,85.7,0,0,1,6.32-6.88c.55,1.71.82,2.48,1.37,3.87A98.07,98.07,0,0,0,487.36,363.13Z"/><path class="cls-27" d="M513.5,338.53a50.87,50.87,0,0,0-12.58,9.16c-4.08-10.35-5.49-21.79-7.31-32.63l4.55-1.32c2.38,14.44,3.54,19.37,5.88,26.39,1.46-1.11,2.19-1.63,3.64-2.58-2.34-6.9-3.46-10.43-5.84-24.85a32.42,32.42,0,0,0,4.43-1.86C508.21,320.15,509.86,329.73,513.5,338.53Z"/><path class="cls-27" d="M509,309.84a27.86,27.86,0,0,1,10.46-1.78c.55,2.83.82,4.16,1.37,6.67a27.57,27.57,0,0,0-6,.72c.55,2.59.83,3.81,1.38,6.08a27.34,27.34,0,0,1,5.69-.84c.54,2.16.81,3.16,1.35,5a27.58,27.58,0,0,0-5.64.94,55.93,55.93,0,0,0,1.73,5.43,28,28,0,0,1,6.09-1.13,14.42,14.42,0,0,1,1.3,3.72c-3.9-1.69-6.3.61-10.56,2.51C512.54,328.52,510.9,319,509,309.84Z"/></g><g class="cls-30"><path class="cls-33" d="M461,561.34c8-4.24,12-7.53,19.91-16.44a10,10,0,0,1,4.15-1.27c-7.86,8.71-11.79,12-19.65,16.43a11.49,11.49,0,0,1,4.2,1.26c-1.61,1.18-2.41,1.72-4,2.71C463.74,562.25,462.83,561.71,461,561.34Z"/><path class="cls-33" d="M496.76,547.84c-6.25,10.13-11.91,18.62-21,26.39-3.36-4.77-5-6.56-8.39-9,8.42-5.48,14.68-12.93,21.13-20.49C491.86,545.42,493.64,547.84,496.76,547.84Zm-20,19.28A93.58,93.58,0,0,0,490,552.49a17.28,17.28,0,0,0-2.55-1.68,85.08,85.08,0,0,1-13.28,13.81,28.19,28.19,0,0,1,2.55,2.46Z"/><path class="cls-33" d="M503.61,550.59a30.16,30.16,0,0,0,2.88,2c-9.31,10.58-16.18,22.14-22.87,34.49l-1.2-2.33c3.73-8.56,5.61-12.81,9.4-21.28-4.6,8.16-6.79,13.36-11.54,18-1.09-2-1.63-2.87-2.72-4.58,9.05-8.3,14.4-17.68,20.4-28.3,1.19.24,1.51-.87,3,.74-4,6.77-5.74,11.38-9.47,19.18C496.05,560.32,498.45,556.58,503.61,550.59Z"/><path class="cls-33" d="M495.46,576.6c1.35-1.91,2-2.83,3.42-4.64a8.4,8.4,0,0,1-1,.07c1.57-2.1,2.37-3.12,4-5.09a21.61,21.61,0,0,0,7.87-3.57,113.16,113.16,0,0,0-12,13.87c-3.94,3.85-6.4,3.72-10.93,5.85a148.44,148.44,0,0,1,22-30c3.23,1.74,4.72,2.18,7.45,2.19-1.88,1.63-2.8,2.48-4.63,4.27a10.15,10.15,0,0,1-4.41-.47,125.45,125.45,0,0,0-13.9,17.76A8.49,8.49,0,0,0,495.46,576.6Z"/></g><g class="cls-30"><path class="cls-27" d="M545.39,309.25l-2.56.67c-1.39,3.42-2.12,5.14-3.73,8.56l-3.22.78c4.23-8.74,6-13.12,9.78-21.87,1.48-1.9,2.2-2.86,3.59-4.77l3.12-1.09c.15,1.4.25,2.11.5,3.52-2.86,8.8-3.9,13.2-7.78,22l-3.26.78C543.4,314.39,544.11,312.68,545.39,309.25Zm-.56-4.28,2.4-.68c1.12-3,1.68-4.56,2.78-7.6l-2.16.69C546.65,300.42,546.05,301.94,544.83,305Z"/><path class="cls-27" d="M555.41,314.59l-8.38,2a69,69,0,0,0,3.12-8.14l3-.78a21.56,21.56,0,0,1-.88,3.17l1.94-.48a25.22,25.22,0,0,0,1.11-4.2,44.69,44.69,0,0,1-2.78-5.31c1.28-4.2,1.92-6.3,3.17-10.51,2.43-.83,3.66-1.25,6.15-2.07-.64,3.13-1,4.7-1.61,7.83l-2.45.72.67-2.79-1.69.52-.91,3.41a47,47,0,0,0,2.93,5.35A59.31,59.31,0,0,1,555.41,314.59Z"/><path class="cls-27" d="M565.8,312.14l-8.45,2A41.34,41.34,0,0,0,560,306l3.12-.77a13.75,13.75,0,0,1-.73,3.23l2-.47a16.39,16.39,0,0,0,.85-4.22,56.27,56.27,0,0,1-3.66-5.36c.79-4.23,1.17-6.34,1.93-10.57,2.5-.83,3.77-1.24,6.33-2.06-.27,3.15-.41,4.73-.69,7.88l-2.51.71.35-2.81-1.74.52-.5,3.43a59.79,59.79,0,0,0,3.82,5.4A40.67,40.67,0,0,1,565.8,312.14Z"/><path class="cls-27" d="M571.16,299.08l4.5-1.15c0,2,0,3-.06,5l-4.77,1.13C571,302.08,571,301.08,571.16,299.08Z"/><path class="cls-27" d="M545.27,329l-2.71,2.9a9.06,9.06,0,0,0,1.41,1.85c-.25,3.08-.37,4.62-.61,7.71-1,1.69-1.56,2.54-2.58,4.24l-7.51,1.7c.39-9.77,1.36-14.48,5.49-23.46,1.53-1.65,2.29-2.47,3.8-4.12l7.33-1.72C548,322.45,547.12,324.63,545.27,329Zm-.87-5.16-3,.68-2.64,5.9,3.06-.67Zm-4.94,16.88c.15-2.32.22-3.48.37-5.81l-2.61.53c-.13,2.33-.19,3.49-.32,5.82Z"/><path class="cls-27" d="M552.39,334.13l-3,.63c-.37,3.66-.56,5.49-.92,9.16l-3.39.78c.81-9.41,1.39-14.08,5-22.9,1.71-1.9,2.56-2.85,4.23-4.75l4.35-1c.39,1.44.59,2.15,1,3.59-3.26,8.87-3.78,13.53-4.94,22.85l-3.4.79C551.78,339.6,552,337.78,552.39,334.13Zm-2.28-4.63,2.94-.63,2.94-7.66-2.85.64Z"/><path class="cls-27" d="M564.82,319.24A77.68,77.68,0,0,0,560.91,336l2.75-.62.82-5.14,3.49-.75c-.72,4.12-1.08,6.18-1.79,10.31l-7,1.65c-.74-1.29-1.11-1.94-1.88-3.24,1.27-9.52,2.68-14.12,5.94-23.22l7.16-1.64c.39,1.27.6,1.91,1,3.18l-1.46,4.57-3.46.75,1.07-3.21Z"/><path class="cls-27" d="M581.52,322c-1.36,6-2,8.94-3.36,14.91l-3.32.8c.82-4,1.24-5.92,2.07-9.87l-3.48.76c-.78,4-1.17,5.94-1.94,9.9l-3.32.79a188.61,188.61,0,0,1,6.4-26.93l3.34-.76c-1.4,4.75-2.51,7-3.47,11.87l.25-.05c2.29-5.11,4-7.55,6.6-12.59l3.35-.75c-2.51,5-4,7.5-6.36,12.59Z"/><path class="cls-27" d="M528.62,379.46l-2.75.8q-1.15-14-2.53-28l3.31-.75c.48,6.68.71,10,1.14,16.68.76-7,1.17-10.46,2-17.41l2.33-.53c.46,6.61.67,9.91,1.06,16.5.79-6.91,1.21-10.35,2.11-17.23l3.26-.75q-2.25,14.43-4.06,28.93l-2.73.8c-.42-6.86-.64-10.3-1.13-17.18C529.79,368.58,529.38,372.2,528.62,379.46Z"/><path class="cls-27" d="M545.11,365.64l-2.63.73-.7,9.22-3,.89c.58-9.48.88-14.22,1.52-23.68,1.14-2,1.72-3,2.89-5.07l4.42-1c.86,1.53,1.28,2.29,2.11,3.81-1,9.36-1.47,14-2.4,23.43l-3,.9C544.63,371.16,544.79,369.32,545.11,365.64Zm-2.22-4.6,2.69-.71c.29-3.26.44-4.88.74-8.14l-2.78.68c-.27,3.27-.39,4.9-.65,8.17Z"/><path class="cls-27" d="M554,362.3l-.79.22c-.49,4-.74,6-1.22,10l-2.9.88c1-9.55,1.55-14.32,2.64-23.86,1.11-1.8,1.67-2.69,2.81-4.48l6.64-1.59c-1.06,7-1.59,10.49-2.62,17.49l-1.64.46c.2,3.8.29,5.69.44,9.47l-2.91.89C554.27,368,554.22,366.09,554,362.3Zm3.21-12.81-2.45.61c-.37,2.89-.55,4.34-.91,7.23l2.38-.63c.39-2.86.58-4.33,1-7.21Z"/><path class="cls-27" d="M570.27,341.28c.68,1.48,1,2.21,1.67,3.68-1.53,7.62-2.28,11.43-3.77,19.05-1.09,1.75-1.62,2.62-2.68,4.38l-6.32,2c1.69-11,2.56-16.46,4.33-27.42Zm-1.73,5.36-2.64.67c-1.18,6.77-1.76,10.16-2.91,16.93l2.45-.73c1.19-6.75,1.83-10.13,3.06-16.88Z"/><path class="cls-27" d="M576.62,364.84l-7.48,2.36c.68-3.37,1-5.06,1.72-8.43l3-.87-.72,3.3,1.81-.55,1-4.3c-1.28-2.14-2-3.22-3.35-5.39.9-4.34,1.35-6.51,2.27-10.85l8.23-2c-.79,3.18-1.18,4.78-2,8l-2.83.73.66-2.85-2.06.54-.78,3.5c1.37,2.18,2,3.26,3.28,5.41C578.27,358,577.72,360.29,576.62,364.84Z"/></g><g class="cls-30"><path class="cls-33" d="M456.27,497.64a28.34,28.34,0,0,1-2,2.86c.75.59,1.14.9,2,1.52.07,2.76.15,4.17.43,7a38.78,38.78,0,0,1-3.33,3.69c-5,.25-7.65.31-13.24.3a58.17,58.17,0,0,1,6.7-18.45,44.06,44.06,0,0,0,3.76-3.6,34.79,34.79,0,0,0,6.53-3.3A68.11,68.11,0,0,0,456.27,497.64Zm-3-4.16c-1.23.45-1.86.66-3.19,1.07-.68,1.95-1,2.94-1.53,4.95,1.55-.3,2.31-.47,3.76-.81.34-2.12.53-3.16,1-5.21Zm-2.62,14.69c.1-2,.18-3,.39-5-1.37.21-2.06.31-3.49.49-.39,1.88-.55,2.83-.82,4.76,1.62-.05,2.4-.11,3.94-.25Z"/><path class="cls-33" d="M473.69,510.5a114.6,114.6,0,0,1-13.42,1.76c-2-10.84-2.38-16-1.68-25.58a23.51,23.51,0,0,0,2.23-1.75,94.1,94.1,0,0,0,3.11,21.5c1.42-.26,2.11-.41,3.45-.7a109.29,109.29,0,0,1-5-22.31,17.79,17.79,0,0,0,1.68-2C466.27,491.5,469.93,500.93,473.69,510.5Z"/><path class="cls-33" d="M486.16,507.22a62.81,62.81,0,0,1-9.89,2.76c-1.83-3.9-2.68-5.82-4.25-9.61,1.32-.51,1.94-.78,3.14-1.33.75,1.55,1.14,2.33,1.94,3.9.83-.31,1.23-.47,2-.8-1.15-2.1-1.71-3.14-2.78-5.2-3.41-2.26-4.92-3.3-7.56-5.22C467,487,466.3,484.65,465,480.11a16.26,16.26,0,0,0,2.5-5.85c1.8,3.75,2.75,5.65,4.79,9.5a17.91,17.91,0,0,1-1.42,1.83c-.62-1.33-.92-2-1.51-3.31a13.82,13.82,0,0,1-1,1.35c.63,1.57,1,2.36,1.62,3.95,2.54,1.89,4,2.92,7.33,5.15C480.62,498.41,482.38,501.31,486.16,507.22Z"/><path class="cls-33" d="M472.69,471.78a20.35,20.35,0,0,1-.22,2.34c6.78,10.1,13.94,19.94,21.39,29.55-1.07.63-1.64.93-2.83,1.51-6.63-9.41-13-18.82-19.1-28.54a16.81,16.81,0,0,1-.76,2.2c-1.38-2.5-2-3.73-3.33-6.19a21.37,21.37,0,0,0,0-7.73C469.74,467.65,470.7,469,472.69,471.78Z"/></g><g class="cls-30"><path class="cls-27" d="M397.15,338.94a233,233,0,0,0,21.46-39.64,42.59,42.59,0,0,0,1.59,5.42c-3.2,11.15-7.61,22.35-14.22,31.95,2.06,3,3.08,4.48,5.07,7.51-2.15,3.11-3.21,4.66-5.32,7.75C402.41,346.66,400.7,344.06,397.15,338.94Z"/><path class="cls-27" d="M423.6,351.84c-1.15-1.87-1.74-2.8-2.92-4.65-3.87,5.48-5.78,8.2-9.55,13.62-1.32-2.24-2-3.35-3.36-5.57,7.68-11.09,14.85-20,16.6-33.73a34.9,34.9,0,0,0,3.43-2.05,71,71,0,0,0,5.29,6.91c1.56,4,2.42,6,4.32,10,.13,12.71-13.37,25.15-20.31,34.88-1.26-2.3-1.9-3.44-3.2-5.71C417.73,360.06,419.67,357.32,423.6,351.84Zm2.67-12.62c1.22,1.83,1.82,2.75,3,4.6,3.53-4.91,2.87-7,2.91-11.48-1.67-1.75-2.46-2.63-4-4.4C427.89,332.41,429.78,334.34,426.27,339.22Z"/><path class="cls-27" d="M453.41,353.23q-12.62,9.91-25.17,19.89c1.61,3,2.39,4.53,3.93,7.58l-6,8.17c-2.45-5.08-3.71-7.59-6.34-12.55l3.86-8.31q12.51-10.17,25.09-20.17c-1.82-3-4.35-4.24-7.56-7-.41-2.87-.66-4.31-1.27-7.17a121.9,121.9,0,0,0,15.19,12.78C456.27,348.91,455.62,350.31,453.41,353.23Z"/><path class="cls-27" d="M467.2,360.18c1.27,2.32,1.9,3.49,3.13,5.84q-19.33,17.5-38.45,35.24c-1.07-2.43-1.61-3.65-2.72-6.06,5.54-5.18,8.37-7.8,14.13-13.12,5.64-10.5,12.77-21.09,16-32.64a13.23,13.23,0,0,1,5,5.4l-9.22,16.39C459.82,366.84,462.27,364.66,467.2,360.18Z"/></g><g class="cls-30"><path class="cls-33" d="M531.38,394.08l-1.6,2.93,2.76,1.17,1.81,6.39-2.33,4-10.56,3.13-6.39-22.38,2.21-4.15L527.92,382Zm-7-6.2-4.26,1.26,2.21,7.61,4.26-1.26Zm4,17-1.36-4.8-3.49,1,1.36,4.8Z"/><path class="cls-33" d="M548.88,409.13l-11.54,2.71-6.9-30.66,4.11-1,6,26.8,3.34-.8-6-26.8,4.09-1Z"/><path class="cls-33" d="M554.08,378.67l-3,.69,7.07,31.81-3.38.77-7.07-31.81-3.12.71-.69-3.15,9.5-2.18Z"/><path class="cls-33" d="M569.11,374.26l-8.58,2.09,7.74,35.22-3.38.77-7.78-35.23-2.2.49-.69-3.15,14.09-3Z"/></g><g class="cls-30"><path class="cls-34" d="M429.74,419.69l-2.53.83,1.51,4.8-3,1L421.86,414l1.57-3.08,3.94-1.3,3,1.56,3.9,12.28-3,1Zm-3.4-1.94,2.53-.83-1.34-4.25-2.53.83Z"/><path class="cls-34" d="M444.08,423l-7.7,2.54L435,421l2.94-1,.56,1.79,1.82-.6-.73-2.34-5.82-2.11-1.84-5.86,7.52-2.48,1.37,4.34-2.66.88-.49-1.55-1.93.63.6,1.9,5.82,2.13Z"/><path class="cls-34" d="M453.56,420l-7.7,2.54L444.43,418l2.94-1,.56,1.79,1.82-.6-.73-2.34-5.82-2L441.36,408l7.52-2.48,1.39,4.34-2.66.88-.49-1.55-1.93.63.6,1.9,5.82,2.13Z"/><path class="cls-34" d="M452.27,410.16l4.35-1.43.87,2.76-4.35,1.43Z"/><path class="cls-34" d="M467.58,406.37l2.54,8.09-3,1-1.68-5.33-3,1,1.68,5.33-3,1-4.57-14.62,3-1,2,6.52.21-.07.75-7.44,3-1-.68,7.42Z"/><path class="cls-34" d="M476.34,409.84l.87,2.77-5,1.64-.87-2.77,1-.33-2.85-9.06-1,.33-.87-2.77,5-1.64.87,2.77-1,.33,2.85,9.06Z"/><path class="cls-34" d="M487.19,408.59l-7.7,2.54-1.43-4.55,2.94-1,.56,1.79,1.82-.6-.73-2.34-5.82-2.11L475,396.46l7.52-2.48,1.36,4.34-2.66.88-.49-1.55-1.93.64.6,1.9,5.82,2.13Z"/><path class="cls-34" d="M497.33,407.17l-7.7,2.54-1.43-4.55,2.94-1,.56,1.79,1.82-.6-.73-2.34L487,400.9,485.13,395l7.52-2.48L494,396.9l-2.66.88-.49-1.55-1.93.64.6,1.9,5.82,2.13Z"/><path class="cls-34" d="M494.27,390.43l6.92-2.28.87,2.77-4,1.31.88,2.81,3.76-1.24.86,2.74-3.72,1.23,1.1,3.5,4-1.33.87,2.77-7,2.32Z"/><path class="cls-34" d="M509.27,391.07l-.77.25,1.66,5.28-2.92,1-4-12.58,1.47-2.76,6-2,2.92,9.29-1.59.52,3.52,4.7-2.94,1Zm-.58-7-2.25.74,1.2,3.81,2.25-.74Z"/></g><g class="cls-30"><path class="cls-35" d="M427.52,408.54c4.4-3.33,14.17-14.27,18.57-17.6.57-.43.86-.66,1.45-1.13-3.14,2.92-9,9.75-14.2,15.32,1.74-.56,2.65-.86,4.51-1.5l-2,2.67C432.27,407.31,430.58,407.77,427.52,408.54Z"/><path class="cls-35" d="M454.27,383.93l1.79-1.64c.11,5-3.72,14-3.61,19l-3.74,1.18c.38-3,2-6.74,3.94-12.13a132.46,132.46,0,0,1-6.91,13l-1.19.36c-.31-2.48,1.37-6.08,3.77-11.09-3.11,5.39-5.5,9.25-6.72,12l-3.54,1c2.61-4.14,9.82-14.2,12.44-18.35l1.75-1.55c-.48,1.84-1.65,4.29-3,8.38C452.07,389.37,453.49,386.67,454.27,383.93Z"/><path class="cls-35" d="M461.27,392.17l-2.72,1.16a19.62,19.62,0,0,0,.35,5.87l-4,1.31c-.48-4.34,1.63-10.6,2.1-16.6a17.26,17.26,0,0,0,1.2-3.55l2-1.84a12,12,0,0,1,2.12,1.57c1.75,6.16,1.59,11.85,3.87,16.68l-3.92,1.32A20.53,20.53,0,0,1,461.27,392.17Zm-2.54-3L461,388c-.14-2.55-.19-3.87-.49-6.07l-1.65,1.13a55.78,55.78,0,0,1-.12,6.11Z"/><path class="cls-35" d="M466.39,373.34c4.71,6.32,7,13,11.68,19.27-3.49,1.27-5.46,2-9.61,3.39-3.12-5.86-3-13.46-6.16-19.32C464,375.23,464.79,374.54,466.39,373.34Zm6.64,17.2c-2.51-4.76-3.62-8.11-6.13-12.88l-1.52,1c2.1,4.76,2.88,8.2,5,13Z"/></g><g class="cls-30"><path class="cls-31" d="M379.27,426.63,381,432l-2.25.4-1.07-3.33-2.22.59,1,3.13-2.24.39-2.69-8.05,2.11-.93,1.26,3.83H375c.31-1.8.46-2.74.73-4.72l2.11-.93c-.23,2.06-.35,3.05-.62,4.94Z"/><path class="cls-31" d="M385.38,429l.64,2.06-3.74.66-.6-1.9.74-.17-2-6.3-.72.28-.6-1.9,3.53-1.55.64,2.06-.72.28,2.05,6.63Z"/><path class="cls-31" d="M386.74,421l2.2,7.27,1.79-.4-.69-2.28,2.2-.6,1.43,4.79-4.72.83c-.83-.52-1.25-.78-2.07-1.26l-3-9.65,4.57-2c.76.44,1.15.67,1.92,1.15L391,421l-2.17.77-.44-1.47Z"/><path class="cls-31" d="M399.43,420.22l2.35,8.1-2.25.4-1.5-5.14-2.22.59,1.46,4.94-2.24.39-3.86-13,2.11-.93,1.78,6h.16c.1-2.68.14-4.07.2-6.93l2.11-.93c0,3,0,4.38-.1,7.15Z"/><path class="cls-31" d="M406,424.41l.86,3-3.74.66-.85-2.83.74-.17-2.7-9.37-.72.28-.82-2.84,3.53-1.55.86,3-.72.28,2.78,9.7Z"/><path class="cls-31" d="M407.72,409.67l1.93-.83,4.85,17.25-2.15.38c-1.93-3.7-2.89-5.49-4.77-9l2.69,9.37-2,.36-4.5-15.78,2-.88c1.86,3.4,2.8,5.15,4.71,8.77Z"/><path class="cls-31" d="M419,421.53l-.82-2.94-.93.25-.93-3.33,3-.94,2.93,10.15-6.44,1.12-5-18,5.69-2.5,1,3.71-3.61,1.39,3.2,11.47Z"/></g><g class="cls-30"><path class="cls-31" d="M358.42,358.56l-1.61-2.21L352,360l-1.9-2.61,20-15.07,3.78.23,2.5,3.44-.87,3.78L351.09,368.3l-1.91-2.63Zm1.18-4.33,1.61,2.21,11.9-8.93-1.61-2.21Z"/><path class="cls-31" d="M361.39,374.64l-4.88-6.72,4.56-3.48,1.87,2.57-1.79,1.37L362.3,370l2.34-1.79.85-8.37,5.87-4.48,4.77,6.56-4.36,3.32-1.68-2.32,1.56-1.19L370.43,360l-1.9,1.45-.86,8.39Z"/><path class="cls-31" d="M362.4,385.4l-4.88-6.72,4.56-3.48,1.87,2.57-1.79,1.37,1.15,1.59L370.8,375l.7-6.87,5.87-4.48,4.77,6.56-4.36,3.32-1.68-2.32,1.56-1.19-1.22-1.68-1.9,1.45-.72,6.88Z"/><path class="cls-31" d="M379.19,379l1.63,2.24,6-4.59,1.9,2.61L369.27,394l-1.9-2.61,10.65-8.1-1.63-2.24-10.65,8.1-1.89-2.6,19.47-14.75,1.89,2.6Z"/><path class="cls-31" d="M395.14,388.05,380.5,399.22,375.27,392l14.6-11.13Zm-13.76,6.58,9.21-7L389,385.42l-9.21,7Z"/><path class="cls-31" d="M376.65,404.59l19.61-15,1.9,2.61-16.83,12.87,6.92,9.62-2.78,2.15Z"/><path class="cls-31" d="M400.08,394.91l7,9.45-2.81,2.13-5.12-6.87-2.82,2.15,3.32,5-2.71,2.07-3.3-5-3.51,2.68,4.63,6.3L392,414.94,385.45,406Z"/></g><g class="cls-30"><path class="cls-31" d="M409.27,392.15l-.6-.54c-2.29,1-3.42,1.48-4.94,3.22-1-.83-1.5-1.23-2.39-2,3.68-4.32,8.57-3.46,13.35-6.69a17,17,0,0,0,2.94-.08c1.34,1.6,2,2.35,3.37,3.81-2.4,3-4.63,3.48-8.08,5.44l-1.34-1.16a9.59,9.59,0,0,0-2.72,4.77L406,396.65A9,9,0,0,1,409.27,392.15ZM417.1,390c-.56-.58-.83-.87-1.37-1.45a22.1,22.1,0,0,1-4,1.88c.63.61.95.92,1.6,1.53a22.38,22.38,0,0,0,3.8-2Z"/><path class="cls-31" d="M417.39,402.23a13.48,13.48,0,0,0-1.59,2.1l-5.11-4a9.94,9.94,0,0,1,1.94-2l1,.78c2.69-2.38,4.61-3,7.3-5.38l-.64-.62a9.94,9.94,0,0,0,1.94-2l2.82,3a13.48,13.48,0,0,1-1.59,2.1l-.64-.62c-2.36,2.52-4,3.34-6.35,5.86Z"/><path class="cls-31" d="M417.6,405.74c2.42-4.12,4.62-5.2,7.38-9,.95-.08,1.39-.15,2.22-.27,1.33,1.48,2,2.24,3.31,3.9l-4.24,8.27c-1.47-1.38-2.31-2.12-4-3.62a27.24,27.24,0,0,0-1.8,2.92Zm10.13-5.21c-.53-.58-.8-.86-1.35-1.43-1.06,1.63-1.65,2.38-2.79,3.93l1.67,1.54C426.27,403,426.78,402.18,427.73,400.53Z"/></g><g class="cls-30"><path class="cls-31" d="M454.27,517.76c.66.76,1,1.15,1.6,1.93a19.23,19.23,0,0,0,5.94-3.21c.85.74,1.26,1.11,2.06,1.86-5,4-9.94,5.22-16.58,7.69-.6-1.25-.9-1.86-1.52-3.08,2.58-.79,4.07-1.18,6.86-2.09-.59-.87-.89-1.3-1.51-2.14-2.72.74-4.18,1-6.69,1.65-.63-1.18-.95-1.76-1.6-2.9,6-1.11,10.94-1.16,14.79-4.3a23,23,0,0,1,2.31,1.76A15.71,15.71,0,0,1,454.27,517.76Z"/><path class="cls-31" d="M456.91,530.52l-1.34-2.31c-2.43,1.19-3.67,1.75-5.94,2.82l-1.5-3.15c5.67-2.32,9.55-3.52,14.64-6.81a32.79,32.79,0,0,0,3.71-.16c1,1,1.48,1.51,2.45,2.53a33.7,33.7,0,0,1-1.1,3.54c-5.59,4.31-9.44,6.4-15.38,9.9-.63-1.26-.94-1.9-1.55-3.17C453.2,532.5,454.45,531.84,456.91,530.52Zm2.15-4.08,1.38,2.09a58.37,58.37,0,0,0,5.12-3.27l-1.48-1.78a50.29,50.29,0,0,1-5,3Z"/><path class="cls-31" d="M462.17,537.71l-.44-.67c-2.76,2-4.16,2.94-6.74,4.71-.65-1.19-1-1.79-1.59-3A144.93,144.93,0,0,0,469.17,528c1.44-.17,2.15-.29,3.55-.53,1.47,1.54,2.2,2.31,3.76,3.82-4.22,3.92-6.79,6.12-11.66,10.13-.39-.53-.58-.79-1-1.33-2.34,2.83-3.52,4.28-5.68,7-.73-1.12-1.08-1.7-1.77-2.86C458.6,541.67,459.8,540.33,462.17,537.71Zm9.23-5.45c-.54-.62-.81-.93-1.34-1.56-1.82,1.5-2.8,2.25-4.76,3.73.51.71.77,1.07,1.3,1.77,2-1.57,2.95-2.36,4.79-3.94Z"/><path class="cls-31" d="M482.21,536.32c-.42,1.6-.65,2.43-1.1,4.11-5.2,5-8,8.11-13.22,13.12-1.66.4-2.48.58-4.08.84a41,41,0,0,1-4.54-5.55c7.21-5.87,11.79-9.93,18.53-16.23Q479.92,534.57,482.21,536.32Zm-4,2.84c-.71-.61-1.06-.92-1.74-1.56-4.54,4.27-7.06,6.66-11.71,10.82.68.8,1,1.2,1.74,2,4.69-4.37,7.19-6.87,11.77-11.26Z"/></g><g class="cls-30"><path class="cls-31" d="M382.59,485.84,381,485c2.41-5.13,3.64-7.74,6.17-13.05l1.55,1.16L385,480.73l5.21-6.5,1.09.82c-1.38,3-2.06,4.49-3.4,7.43l4.89-6.32,1.54,1.15c-3.25,4-4.91,6.09-8.28,10.3l-1.6-.83,3.55-7.72Z"/><path class="cls-31" d="M394.18,483.6l1.43.92,2.64-4.26,1.6,1.19-6.23,10.08-1.77-.91,2.56-4.14L393,485.6l-2.68,4.24-1.76-.91,6.76-10.88,1.59,1.19Z"/><path class="cls-31" d="M405.27,485.48l-5.65,9.13-4.92-2.53,6.13-9.91ZM399,492l3.66-5.91-1.38-1-3.75,6.06Z"/><path class="cls-31" d="M410.62,489.5l-5.06,8.18-4.92-2.53,5.54-9Zm-5.8,5.74,3.29-5.32-1.38-1-3.38,5.47Z"/><path class="cls-31" d="M406.62,498.23l4.28-6.91,1.8-.27,3.14,2.35-3.33,5.39-2.94-1.68-1.24,2Zm6.81-4.6-1.16-.79-1.77,2.86,1.25.77Z"/></g><g class="cls-30"><path class="cls-17" d="M518.19,286.19l-.71.55c3.63,5.46,5.39,8.16,5.12,11.21-.82,1.4-1.23,2.18-2.12,4-2.82-12.39-12.84-22.08-18.54-33.2a5.43,5.43,0,0,1,1.91-4c3.31.19,5.14.31,9,.59-1,4.41,4.44,10.24,9.49,18.35a16.51,16.51,0,0,0-1.53.74c3.85,4.49,5.52,6.53,5.44,8.54a17.44,17.44,0,0,0-1.93,2.36C524.21,293.2,522.36,291,518.19,286.19Zm-8.67-16.47c-1.25.07-1.87.11-3.06.23a70.22,70.22,0,0,0,6,9.52,22.77,22.77,0,0,1,2.52-1,62.27,62.27,0,0,1-5.46-8.76Z"/><path class="cls-17" d="M530.42,282.75a24.74,24.74,0,0,0-2.58.41c1.7,3.61,2.43,5.35,1.59,7.4a9.45,9.45,0,0,0-2,1.31c1.6-5.53-8.2-14.83-10.91-23a6.43,6.43,0,0,1,3.56-3l6.89.57c1.12,1.11,1.87,1.8,3.44,3.27.07,7.11,6.36,14.53,3.24,19.66a12.85,12.85,0,0,0-2.38.47C532.27,287.84,531.72,286.19,530.42,282.75Zm-5.37-5c1.25-.09,1.89-.12,3.18-.14-1.42-3.22-2.24-4.89-2.77-7.56-1.64-.11-2.45-.16-4-.24a39.65,39.65,0,0,0,3.58,7.91Z"/><path class="cls-17" d="M547.63,271.84l-4.53-.36c-1.34,6.7,1.74,12.36-2.05,17.55l-3.26.09c3.59-5.07-.47-11.22.23-18.08l-4.64-.4a5.35,5.35,0,0,1,.88-3.56c6,.52,9.11.79,15,1.27A8.74,8.74,0,0,0,547.63,271.84Z"/><path class="cls-17" d="M557.27,269a12.55,12.55,0,0,0-1.64,3.73,4.23,4.23,0,0,1-.84,1.47,8,8,0,0,1-3.19,2.3,4.63,4.63,0,0,1-1.84.35c.44-3.64.59-5.51,2.51-8.24Z"/><path class="cls-17" d="M571.73,282.94a91.13,91.13,0,0,1-17,4.69,17.19,17.19,0,0,0,2-5.55c2-.26,3.09-.43,5.3-.85-.17.85-.27,1.26-.48,2.08,1.42-.32,2.15-.5,3.67-.9.19-1,.27-1.5.42-2.52a19.83,19.83,0,0,1-7.66-3.41c.61-3.11.89-4.68,2.36-7.27,4.78.35,7,.5,10.93.68,0,1.56,0,2.34.07,3.9-1.83.22-2.75.3-4.58.43.1-.66.15-1,.27-1.65h-3.17c-.22.87-.32,1.31-.5,2.21a17.25,17.25,0,0,0,8.23,2.55Z"/></g><g class="cls-30"><path class="cls-13" d="M528.57,318.84c-.5,1.16-.73,1.73-1.16,2.79,1.24,3.09,2,4.51,3.92,5.84-.49,1.4-.69,2-1,3.06-5.22-3.26-5.71-11.83-8.12-19.31-.05-2.15-.07-3.14-.17-4.76.67-1.12,1-1.6,1.57-2.49a18.27,18.27,0,0,1,2.19,1.15c2.72,5.8,3.24,12,8.38,14.78-.74,1.84-1.09,2.73-1.71,4.37C530.53,323,529.82,321.65,528.57,318.84Zm-2.77-2,1.14-2.41c-.91-2.79-1.29-4.28-2.13-6.7-.43.72-.64,1.09-1.07,1.85C524.55,312.18,524.91,313.84,525.8,316.84Z"/><path class="cls-13" d="M540.44,304.64c-2,4.81-3.11,7.55-5.11,12.44-2-.88-2.69-1.8-4-3.83l1.71-3.84a10.09,10.09,0,0,0,1.5,1.42l1.13-2.65a10.44,10.44,0,0,1-2-1.56c-2.24,1.27-3.22,1.51-5,1.41-1.38-2.93-2-4.51-3.52-6.27,1-1.45,1.53-2,2.59-3.52a11.39,11.39,0,0,1,3.49,1.94L530,302.29c-.43-.48-.65-.71-1.09-1.15l-.81,1.28c.5.65.75,1,1.24,1.73a9.62,9.62,0,0,0,5-1.81A10.7,10.7,0,0,0,540.44,304.64Z"/><path class="cls-13" d="M544.88,292.55a83.52,83.52,0,0,1-3.35,9.37,12.17,12.17,0,0,1-4.76-.94c.63-1.45.94-2.16,1.49-3.49.67.11,1,.16,1.75.23.35-.89.51-1.32.82-2.13a19.29,19.29,0,0,1-2.26-.14,27.09,27.09,0,0,1-5.3,3.79,16.64,16.64,0,0,0-4.88-2,52.51,52.51,0,0,0,3-4.92c1.71.1,2.43.15,3.88.22-.44.87-.66,1.3-1.11,2.16l-1.33-.17c-.33.58-.49.86-.82,1.42.66.14,1,.21,1.61.37a33.74,33.74,0,0,0,5-3.74C540.82,292.63,541.9,292.63,544.88,292.55Z"/></g><g class="cls-30"><path class="cls-34" d="M365.27,282c9.92-6.13,20-10.77,30.4-16.07a45.85,45.85,0,0,0,5.35-.73c1.08,2.61,1.57,3.83,2.51,6.21-7.35,5.83-15.79,10.43-23.8,15.25-1.56-2.72-2.33-4.05-3.83-6.61a47.28,47.28,0,0,0-8.36,5.42Zm31.35-9.56L395.53,270a144.49,144.49,0,0,1-13,6.64l1.45,2.67c5.13-2.7,7.81-3.94,12.62-6.93Z"/><path class="cls-34" d="M387.39,294.94l-1.88-3.4c-4,3-5.92,4.52-9.43,7.63l-2.68-4.33c8.26-6.65,17.49-12,26.21-18a49.35,49.35,0,0,0,5.49-1.34l1.45,3.77c-1.29,2.41-1.95,3.63-3.19,6.19q-11.12,11-22.23,22.08L378.38,303C381.77,299.77,383.63,298.16,387.39,294.94Zm3.9-7.73,1.58,3.06c3.37-2.86,5.07-4.3,8.31-7.14L400,280.54c-3.39,2.69-5.19,4-8.76,6.66Z"/><path class="cls-34" d="M391.49,312.24c-1.72,2.23-2.58,3.3-4.27,5.25-1.77-2.87-2.67-4.36-4.48-7.34,1.83-1.9,2.77-2.9,4.68-4.94l.82,1.43c6.11-6.8,9.42-10.79,15.54-17.59l-.45-1c1.91-2,2.86-3,4.69-4.94.72,1.9,1.09,2.85,1.85,4.81-1.69,2-2.55,3-4.27,5.25l-.46-1c-5.73,7.16-8.73,11.59-14.46,18.75Z"/><path class="cls-34" d="M412.49,296.15c.49,1.18.75,1.79,1.28,3-6.93,10.09-10.91,21.73-18,31.68-.88-1.32-1.33-2-2.26-3.45,3.66-7.11,5.29-12.48,9.18-21.43-4.57,7.64-6.81,12-11.52,17.76-.91-1.45-1.38-2.19-2.32-3.71,7.64-9.55,13.74-20.17,21.29-29.79.46,1.15.69,1.73,1.18,2.92-4.21,7.11-6.08,12.15-9.59,21.38C405.92,306.66,408,302,412.49,296.15Z"/></g><g class="cls-30"><path class="cls-17" d="M462.65,445.84C458.32,439,455,434,450.3,426.56c-.13-1.53-.17-2.26-.18-3.63,1.88-.86,2.9-1.28,5-2.07,3.51,5.26,6.09,9.64,10.17,16.12a43.35,43.35,0,0,0-4.08,2.07c1.47,2.3,2.18,3.41,3.46,5.39C463.85,445,463.44,445.28,462.65,445.84ZM455,425.55c-.74.34-1.11.51-1.81.87l5.34,8.36c.68-.37,1-.55,1.75-.91l-5.28-8.3Z"/><path class="cls-17" d="M473,435.76c1,1.56,1.42,2.28,2.26,3.5a42.84,42.84,0,0,0-4.38,1.83c-.88-1.3-1.36-2-2.36-3.63l.88-.36c-3.23-5.14-5.26-8.71-8.49-13.85l-.93.35c-1-1.58-1.48-2.33-2.36-3.63,1.89-.65,2.87-1,4.88-1.59.84,1.22,1.3,1.94,2.26,3.5l-1,.33c3.16,5.09,5.15,8.76,8.31,13.85Z"/><path class="cls-17" d="M464.81,417.71c2.87-.84,4.35-1.25,7.37-2a38,38,0,0,1,2.06,3.34c-1.69.48-2.53.72-4.18,1.22.93,1.57,1.42,2.44,2.42,4.23,1.54-.46,2.32-.69,3.9-1.13l2.38,4.47c-1.53.41-2.29.63-3.79,1.06,1.25,2.25,1.88,3.38,3,5.33,1.58-.46,2.38-.68,4-1.1.88,1.54,1.31,2.24,2.06,3.34-2.77.77-4.13,1.19-6.75,2.1C473,432.29,469.11,423.94,464.81,417.71Z"/><path class="cls-17" d="M480,417.41c2.75,5,4.59,9.32,7.34,14.36l2.49-.56c-.82-1.53-1.25-2.42-2.14-4.23l3.17-.72a52.41,52.41,0,0,0,3.95,7.53c-2.58.56-3.86.85-6.4,1.48a23.92,23.92,0,0,1-3.56-1.74c-3.8-6.51-6.79-13.71-10.13-18.55,2.83-.74,4.27-1.1,7.14-1.83a19.8,19.8,0,0,1,3.51,1.67c.7,1.3,1.08,2.08,1.87,3.7l-3.25.84c-.56-1.13-.84-1.67-1.36-2.66Z"/><path class="cls-17" d="M486.56,412c3.07-.79,4.6-1.18,7.57-2a23.24,23.24,0,0,1,1.72,3.23l-4.25,1.15c.78,1.61,1.21,2.56,2.07,4.51l4-1c.82,1.95,1.25,3,2.08,5l-3.92.88c1.08,2.48,1.63,3.73,2.6,5.73l4.18-.82a22.23,22.23,0,0,0,1.72,3.23c-2.86.57-4.31.85-7.2,1.46C493.7,428.2,490,417.05,486.56,412Z"/><path class="cls-17" d="M508.18,405.61c3,4.53,6.74,18.92,9.76,23.44-3.1.69-4.72,1-8,1.68-3.09-4.7-6.75-17.76-9.83-22.46C503.49,407.25,505.13,406.72,508.18,405.61Zm5.44,20.87c-2.4-5.53-4.14-11.19-6.54-16.73l-2.47.8c2.41,5.48,4.14,11,6.55,16.46Z"/><path class="cls-17" d="M518.1,418.11c1.89,5.19,2.87,8,4.19,9.91-1.06.27-1.6.4-2.69.65-2.61-3.88-5.47-14.52-8.63-21.46a19,19,0,0,1,.55-2.9,39.32,39.32,0,0,0,3.91-1.77,16.51,16.51,0,0,1,1.71,3.38c-1.18.56-1.8.84-3.09,1.37.75,1.78,1.16,2.88,2,5.15,1.2-.45,1.79-.67,2.9-1.14.83,2.26,1.26,3.5,2.11,5.82C519.91,417.53,519.27,417.72,518.1,418.11Z"/></g><g class="cls-30"><path class="cls-17" d="M533.19,431.9c-1.6-.33-2.42-.52-4.11-1a82.47,82.47,0,0,1,.78,8.88c-2-.75-3.12-1.18-5.45-2.15,0-8.18-1.45-12.87-2-21.3,1.41-1.45,2.09-2.23,3.53-3.9,2.55,0,3.85,0,6.47.1,1.61,1.91,2.44,2.91,4.1,4.92.69,10.16,1.74,15,2,24.68a28.94,28.94,0,0,1-4.5-1C533.82,437.5,533.62,435.64,533.19,431.9Zm-4.81-6.2c1.69.34,2.51.5,4.15.76-.42-3.35-.65-5-1-8.41-1.67-.14-2.5-.22-4.18-.39.35,3.18.59,4.83,1,8Z"/><path class="cls-17" d="M552.35,440c-5,2.17-7,2.55-11.34,2.36-.06-3.61-.17-5.41-.43-9a29.52,29.52,0,0,0,4.41-.07c.06,1.4.08,2.1.12,3.49a25,25,0,0,0,2.71-.42c0-1.78,0-2.66-.09-4.44a89.26,89.26,0,0,1-7.68-7c-.37-4.77-.57-7.18-.69-12.2l12.76.36v8.56c-1.78.15-2.66.2-4.41.26,0-1.23,0-1.85-.07-3.11h-3.2c0,1.57.08,2.35.15,3.88a43.82,43.82,0,0,0,7.76,6.28C552.44,433.39,552.45,435.51,552.35,440Z"/><path class="cls-17" d="M571.44,428c-7.83,5.81-10.8,7.85-16.12,10.64.06-3.12.07-4.59.07-7.6a51.88,51.88,0,0,0,5.25-2.12c0,1,0,1.51.05,2.53,1.39-.74,2.11-1.14,3.61-2-.08-1.16-.11-1.73-.19-2.88-3.82,0-5.4-.66-8.61-2.58,0-4-.06-6.08-.07-10.77,5,.12,7.54.17,12.3.17.52,2.44.74,3.43,1.16,5.25-2,.56-3,.8-4.88,1.23-.07-.84-.1-1.27-.17-2.17-1.34.19-2,.27-3.34.42,0,1.23.06,1.83.1,3,3.37,1.57,5.09,2,9.4,1.28C570.55,424.55,570.81,425.5,571.44,428Z"/></g><g class="cls-30"><path class="cls-13" d="M321.2,273.93c2.2,7.59,3.61,12.94,5.82,20.54,1.05-.6,1.57-.9,2.61-1.53-.63-2.22-1-3.44-1.65-5.89,1.33-.68,2-1,3.32-1.74,1.27,4.74,1.91,7.11,2.9,10.51a77,77,0,0,1-6.53,4.55,25.84,25.84,0,0,1-3.48-2.48c-2.76-9.43-5.35-18.92-8.24-28.31l7.93-2c1.36,1.06,2.05,1.65,3.42,2.86.52,1.86.8,2.89,1.37,5l-3.52,1.31c-.43-1.55-.64-2.31-1-3.75Z"/><path class="cls-13" d="M339,264c1.61,7.08,3.71,16.6,5.32,23.68-3.35,2.7-5,4.09-8.33,6.71-2.56-9.3-4.9-18.65-7.46-28C332.7,265.48,334.8,265,339,264Zm1.42,22c-1.5-6.19-2.56-10.8-4.06-17l-3.07,1c1.66,6.52,2.82,11.32,4.48,17.83Z"/><path class="cls-13" d="M348.09,261.94l3.82-.88c-.24,5.47,1,14,1,20.12-2,1.38-3,2.1-4.87,3.58-2-5.78-4.4-14.74-6.79-21.25l3.86-.89c1.46,4.6,2.84,9.94,4.56,16.1C349,271.93,348.21,266.5,348.09,261.94Z"/><path class="cls-13" d="M354.16,260.54l8.71-2c.07.81.13,1.34.29,2.52-2,.53-3,.8-4.93,1.36.18,1.28.29,2,.51,3.49,1.84-.62,2.77-.92,4.65-1.49.2,1.37.31,2.09.52,3.48-1.85.63-2.77,1-4.56,1.68.29,1.88.43,2.82.65,4.41a53.1,53.1,0,0,1,4.89-2.07c.16,1.18.22,1.71.29,2.52a48.69,48.69,0,0,0-8.27,4.2C356.32,273.61,354.75,265.54,354.16,260.54Z"/><path class="cls-13" d="M371.5,266.92l-1,.25c.42,2.5.63,3.73.79,5.2a40,40,0,0,0-3.86,1.18c-.31-3.55-1.36-9-2-13.86a19.6,19.6,0,0,1,2.44-2.38c3-.72,4.44-1.09,7.36-1.83.55,2.69,1.26,5.77,2.26,10.23-.89.13-1.33.21-2.2.37a27,27,0,0,0,3.76,4.95,41.34,41.34,0,0,0-4.31.59A24.41,24.41,0,0,1,371.5,266.92Zm.54-8.12-2.84.68c.24,1.56.41,2.51.72,4.37,1.16-.29,1.75-.43,2.93-.69-.35-1.87-.53-2.81-.81-4.32Z"/></g></g><path id="waterline" class="cls-36" d="M274.45,256.13S395,243.56,411.05,248.7s14.86,10.86,28.58,10.29,70.3-11.43,88.59-5.14,96.59,7.43,110.88,2.86c0,0-87.82,14.11-98.48,12.45-17.55-2.73-43.84-10.16-67.27-6.73s-68,22.86-98.3,8S274.45,256.13,274.45,256.13Z"/></g></g><g id="advisory"><g id="path2384"><path class="cls-37" d="M33.78,635a5.33,5.33,0,0,0,1.37-2.13c.53-1.78.5-14.89,0-16.44-.67-1.91-1.88-2.72-4.86-2.72H27.49V635.8h2.66C32.48,635.8,32.93,635.7,33.78,635ZM30.61,617.1a2.19,2.19,0,0,1,1.37.46c.47.46.55,1.5.55,7.07a44.93,44.93,0,0,1-.32,7.21c-.23.55-1.72.56-1.71.55Z"/><path class="cls-37" d="M19.2,630.46s.3,5.34.3,5.34h3l-2.61-22.11H17.13L16,623c-.59,5-1.26,9.83-1.39,10.88l-.15,1.19-.1.74h3.1l.52-5.34C18,630.46,19.16,630.44,19.2,630.46Zm-.63-11.88s.46,7.34.54,9.56c0,0-1.05,0-1.07,0S18.55,618.58,18.57,618.58Z"/><path class="cls-37" d="M45.92,635.8l2.67-22.11H45.92l-1.68,13.07c-.53-4.34-.51-8.74-1.11-13.07H40.56c.58,7.37,1.46,14.74,2.08,22.11Z"/><path class="cls-37" d="M11.09,658.44l100.47,0V638.48H11.09Z"/><path class="cls-37" d="M82.08,618c-.19-2.46-1.26-4.26-4-4.29-2.32.06-3.59,1.86-3.61,4.09-.11,3.78-.21,12.65.08,15.1.37,1.89,1.39,2.93,3.85,2.92a3.17,3.17,0,0,0,3.42-2.86,58.2,58.2,0,0,0,.29-8.34C82.09,621.63,82.15,619.4,82.08,618Zm-3.7,14.82c-1.19,0-1.09-.74-1.16-2.14s-.06-11.52,0-12.69c.06-1,.49-1.57,1.11-1.56s1,.24,1,1.42c0,1,0,11.15,0,12.65C79.32,631.31,79.45,632.78,78.38,632.8Z"/><path class="cls-37" d="M107.9,613.69h-2.48s-1,7.95-1.09,8-1.41-8-1.41-8h-2.43s2.19,12,2.19,12,0,10.08,0,10.08h3v-10s2.21-12.08,2.21-12.07Z"/><rect class="cls-37" x="11.09" y="594.61" width="100.46" height="17.08"/><path class="cls-37" d="M95.48,620c0-2.86-.47-4.41-1.66-5.47-.58-.52-1.34-.76-3.4-.85H87.78V635.8h3v-9.71a8.91,8.91,0,0,1,1,0c.57.24.66,1.33.66,5.36v4.33h3v-4.92c0-4.55,0-5-.71-5.67l-.71-.76.71-.9C95.36,622.81,95.48,622.19,95.48,620Zm-3,1.53a1.74,1.74,0,0,1-.38,1.13,2,2,0,0,1-1.23.41l0-6s1.62-.21,1.62,2C92.51,619.7,92.53,620.86,92.45,621.54Z"/><path class="cls-37" d="M66.15,620.06l2.88,0v-1.54c0-3-1.52-4.87-4-4.87-1.38,0-2.83,1.46-3.36,3.39a9,9,0,0,0,1.41,6.83c3.28,5.18,3.33,5.33,3.23,7.08-.08,1.42-.2,1.68-.77,1.68s-.7-.28-.84-1.68l-.06-1.67h-3l.06,1.84c-.12,2.07.54,3.72,1.73,4.29a5.59,5.59,0,0,0,4,0c1.14-.54,1.95-2.88,1.95-4.67,0-2.3-.46-3.56-2.71-7-1.62-2.45-2.1-3.48-2.22-4.73s0-1.71.34-2c.67-.55,1.45,0,1.42,1.55C66.16,619.43,66.14,620.06,66.15,620.06Z"/><polygon class="cls-37" points="53.28 613.69 53.28 635.8 56.31 635.8 56.31 613.69 53.28 613.69"/></g><g class="cls-38"><path class="cls-9" d="M19.49,598.17A4.13,4.13,0,0,0,18,598H15.21v9.75h1v-4h1.91a2.54,2.54,0,0,0,2.17-.84,3.5,3.5,0,0,0,.62-2.14,3.38,3.38,0,0,0-.38-1.69A2,2,0,0,0,19.49,598.17Zm0,4a1.74,1.74,0,0,1-1.33.45H16.2v-3.49h1.91a2.57,2.57,0,0,1,1.06.15,1.25,1.25,0,0,1,.51.57,2.13,2.13,0,0,1,.21,1A1.86,1.86,0,0,1,19.46,602.17Z"/><path class="cls-9" d="M34.67,603.61a4.53,4.53,0,0,1-.47,2.48,2.09,2.09,0,0,1-2.6.33,1.68,1.68,0,0,1-.63-.9,6.7,6.7,0,0,1-.19-1.91V598h-1v5.63a5.61,5.61,0,0,0,.74,3.34,2.62,2.62,0,0,0,2.21.95,2.71,2.71,0,0,0,1.72-.53,2.64,2.64,0,0,0,.94-1.43,8.81,8.81,0,0,0,.26-2.33V598h-1Z"/><path class="cls-9" d="M50.08,599a2.43,2.43,0,0,0-1.13-.85A4.45,4.45,0,0,0,47.5,598H44.92v9.75h2.7a3.29,3.29,0,0,0,1.86-.48,3.42,3.42,0,0,0,1.16-1.64,7.72,7.72,0,0,0,.46-2.81,8.15,8.15,0,0,0-.27-2.23A4.53,4.53,0,0,0,50.08,599Zm-.36,6.15a2,2,0,0,1-.76,1.08,2.56,2.56,0,0,1-1.46.34H45.91v-7.45h1.57a3.07,3.07,0,0,1,1.26.19,2.15,2.15,0,0,1,1,1.14,5.85,5.85,0,0,1,.38,2.33A7,7,0,0,1,49.72,605.16Z"/><path class="cls-9" d="M65.24,599a2.48,2.48,0,0,0-1.13-.85,4.56,4.56,0,0,0-1.46-.18H60.08v9.75h2.69a3.25,3.25,0,0,0,1.86-.48,3.42,3.42,0,0,0,1.16-1.64,7.52,7.52,0,0,0,.46-2.81,8.15,8.15,0,0,0-.27-2.23A4.71,4.71,0,0,0,65.24,599Zm-.36,6.15a2.1,2.1,0,0,1-.77,1.08,2.56,2.56,0,0,1-1.46.34H61.06v-7.45h1.57a3.07,3.07,0,0,1,1.26.19,2.15,2.15,0,0,1,1,1.14,5.85,5.85,0,0,1,.38,2.33A7.22,7.22,0,0,1,64.88,605.16Z"/><rect class="cls-9" x="75.44" y="597.98" width="0.99" height="9.75"/><polygon class="cls-9" points="90.68 605.65 86.76 597.98 85.75 597.98 85.75 607.73 86.7 607.73 86.7 600.06 90.62 607.73 91.63 607.73 91.63 597.98 90.68 597.98 90.68 605.65"/><path class="cls-9" d="M104.45,602.76v1.15h2.19v1.81a3.05,3.05,0,0,1-1,.71,2.73,2.73,0,0,1-1.2.3,2.42,2.42,0,0,1-2-1,4.78,4.78,0,0,1-.76-2.94,5.8,5.8,0,0,1,.36-2.17,2.88,2.88,0,0,1,.94-1.32,2.34,2.34,0,0,1,1.4-.42,2.24,2.24,0,0,1,1,.23,2,2,0,0,1,.72.65,3.71,3.71,0,0,1,.45,1.23l.89-.32a4.34,4.34,0,0,0-.6-1.64,2.73,2.73,0,0,0-1-.93,3,3,0,0,0-1.43-.32,3.25,3.25,0,0,0-1.93.56,3.85,3.85,0,0,0-1.31,1.75,7,7,0,0,0-.51,2.78,6.67,6.67,0,0,0,.5,2.7,4,4,0,0,0,1.36,1.71,3.38,3.38,0,0,0,2,.59,3.61,3.61,0,0,0,1.59-.38,5.56,5.56,0,0,0,1.51-1.15v-3.62Z"/></g><g class="cls-38"><polygon class="cls-9" points="15.16 648.3 16.97 648.3 16.97 647.16 15.16 647.16 15.16 644.19 17.09 644.19 17.09 643.04 14.73 643.04 14.73 652.75 17.16 652.75 17.16 651.61 15.16 651.61 15.16 648.3"/><path class="cls-9" d="M23.68,643.05h-.47l-.66,2.57c-.1.4-.19.76-.26,1.11-.05-.29-.14-.69-.26-1.2l-.6-2.48h-.51L22,647.69l-1.27,5.06h.52l.82-3.38c0-.13.08-.38.16-.73.05.24.09.46.14.65l.82,3.46h.54l-1.24-5.14Z"/><path class="cls-9" d="M29.36,643.23a1,1,0,0,0-.64-.18H27.48v9.7h.44v-3.94h.83c.45,0,.77-.28.95-.83a6.73,6.73,0,0,0,.28-2.14,7.31,7.31,0,0,0-.17-1.68A1.83,1.83,0,0,0,29.36,643.23Zm0,4a.63.63,0,0,1-.59.44h-.84v-3.47h.83a.6.6,0,0,1,.47.15,1.31,1.31,0,0,1,.22.57,4.61,4.61,0,0,1,.09,1A3.71,3.71,0,0,1,29.35,647.22Z"/><polygon class="cls-9" points="34.28 643.04 33.84 643.04 33.84 652.75 35.89 652.75 35.89 651.61 34.28 651.61 34.28 643.04"/><rect class="cls-9" x="39.83" y="643.05" width="0.43" height="9.71"/><path class="cls-9" d="M46.34,651.21c-.17.4-.38.61-.61.61s-.58-.33-.77-1a11.59,11.59,0,0,1-.29-3,14.37,14.37,0,0,1,.14-2.18,3.9,3.9,0,0,1,.39-1.27.69.69,0,0,1,.56-.41c.44,0,.73.68.88,2l.42-.3a6.51,6.51,0,0,0-.48-2.1q-.33-.72-.81-.72a1,1,0,0,0-.78.57,5,5,0,0,0-.56,1.68,14.93,14.93,0,0,0-.2,2.71,16.45,16.45,0,0,0,.2,2.81,5.28,5.28,0,0,0,.53,1.74.91.91,0,0,0,.77.54c.35,0,.64-.27.88-.81a7.83,7.83,0,0,0,.5-2.44l-.43-.32A6.36,6.36,0,0,1,46.34,651.21Z"/><rect class="cls-9" x="51.08" y="643.05" width="0.43" height="9.71"/><polygon class="cls-9" points="55.37 644.19 56.44 644.19 56.44 652.75 56.88 652.75 56.88 644.19 57.96 644.19 57.96 643.04 55.37 643.04 55.37 644.19"/><path class="cls-9" d="M68.24,651.21c-.17.4-.37.61-.61.61s-.57-.33-.77-1a11.68,11.68,0,0,1-.28-3,13.17,13.17,0,0,1,.14-2.18,3.7,3.7,0,0,1,.38-1.27.69.69,0,0,1,.57-.41c.44,0,.73.68.87,2l.43-.3a6.51,6.51,0,0,0-.48-2.1q-.34-.72-.81-.72c-.29,0-.55.19-.79.57a5,5,0,0,0-.55,1.68,14.84,14.84,0,0,0-.21,2.71,16.36,16.36,0,0,0,.21,2.81,5.32,5.32,0,0,0,.52,1.74.93.93,0,0,0,.78.54c.34,0,.64-.27.88-.81a8.13,8.13,0,0,0,.5-2.44l-.43-.32A6.31,6.31,0,0,1,68.24,651.21Z"/><path class="cls-9" d="M75.13,643.47c-.23-.4-.5-.6-.79-.6-.44,0-.81.45-1.11,1.34a12.5,12.5,0,0,0-.45,3.81,12.13,12.13,0,0,0,.4,3.36c.29,1,.68,1.54,1.16,1.54s.87-.5,1.16-1.5a12.62,12.62,0,0,0,.4-3.52,15.19,15.19,0,0,0-.2-2.7A5.28,5.28,0,0,0,75.13,643.47Zm0,7.35c-.22.66-.48,1-.8,1s-.57-.33-.79-1a9.21,9.21,0,0,1-.33-2.79,10.89,10.89,0,0,1,.32-3.07c.21-.67.48-1,.81-1s.39.15.56.46a3.59,3.59,0,0,1,.38,1.21,13.53,13.53,0,0,1,.17,2.24A10.38,10.38,0,0,1,75.14,650.82Z"/><polygon class="cls-9" points="81.94 650.68 80.22 643.04 79.78 643.04 79.78 652.75 80.2 652.75 80.2 645.12 81.91 652.75 82.36 652.75 82.36 643.04 81.94 643.04 81.94 650.68"/><polygon class="cls-9" points="86.19 644.19 87.27 644.19 87.27 652.75 87.7 652.75 87.7 644.19 88.78 644.19 88.78 643.04 86.19 643.04 86.19 644.19"/><polygon class="cls-9" points="93 648.3 94.81 648.3 94.81 647.16 93 647.16 93 644.19 94.93 644.19 94.93 643.04 92.57 643.04 92.57 652.75 95 652.75 95 651.61 93 651.61 93 648.3"/><polygon class="cls-9" points="101.09 650.68 99.37 643.04 98.93 643.04 98.93 652.75 99.35 652.75 99.35 645.12 101.06 652.75 101.5 652.75 101.5 643.04 101.09 643.04 101.09 650.68"/><polygon class="cls-9" points="105.34 643.04 105.34 644.19 106.42 644.19 106.42 652.75 106.85 652.75 106.85 644.19 107.93 644.19 107.93 643.04 105.34 643.04"/></g></g></svg>