<svg id="Layer_1" data-name="Layer 1" xmlns="http://www.w3.org/2000/svg" xmlns:xlink="http://www.w3.org/1999/xlink" viewBox="0 0 1400.21 709.58"><defs><style>.cls-1{fill:none;}.cls-2{fill:url(#linear-gradient);}.cls-3{fill:url(#linear-gradient-2);}.cls-4{clip-path:url(#clip-path);}.cls-5{fill:#5fcbeb;}.cls-6{fill:#67a3d8;}.cls-7{fill:#c4e9f8;opacity:0.56;}.cls-10,.cls-12,.cls-15,.cls-20,.cls-22,.cls-23,.cls-25,.cls-26,.cls-28,.cls-29,.cls-36,.cls-7{isolation:isolate;}.cls-8{clip-path:url(#clip-path-2);}.cls-9{fill:#fff;}.cls-10,.cls-24{fill:#3292d0;}.cls-10{opacity:0.72;}.cls-11,.cls-26{fill:#94c4da;}.cls-12,.cls-31{fill:#1b69b3;}.cls-12{opacity:0.84;}.cls-13{fill:#31a9cd;}.cls-14{fill:#1a5a8d;}.cls-15{fill:#38a2d3;opacity:0.64;}.cls-16{fill:#124d75;}.cls-17{fill:#4bc5d7;}.cls-18{fill:#72b9ca;}.cls-19,.cls-20,.cls-36{fill:#c6e6f7;}.cls-20{opacity:0.6;}.cls-21{fill:#a1cde0;}.cls-22,.cls-29{fill:#34acd0;}.cls-22{opacity:0.39;}.cls-23,.cls-34{fill:#2b9bc9;}.cls-23{opacity:0.77;}.cls-25{fill:#135593;opacity:0.75;}.cls-26{opacity:0.73;}.cls-27{fill:#2c7ec2;}.cls-28{fill:#cfe8f9;opacity:0.41;}.cls-29{opacity:0.29;}.cls-30{opacity:0.46;}.cls-32{fill:#2e3e85;}.cls-33{fill:#123758;}.cls-35{fill:#1887ab;}.cls-36{opacity:0.83;}</style><linearGradient id="linear-gradient" x1="688.58" y1="432.47" x2="688.58" y2="5.87" gradientTransform="matrix(1, 0, 0, -1, 0, 708.7)" gradientUnits="userSpaceOnUse"><stop offset="0" stop-color="#3dbad0"/><stop offset="0.52" stop-color="#226aa9"/><stop offset="1" stop-color="#15324d"/></linearGradient><linearGradient id="linear-gradient-2" x1="688.58" y1="704.4" x2="688.58" y2="435.22" gradientTransform="matrix(1, 0, 0, -1, 0, 708.7)" gradientUnits="userSpaceOnUse"><stop offset="0" stop-color="#f2f5f6"/><stop offset="1" stop-color="#bce6f6"/></linearGradient><clipPath id="clip-path"><path class="cls-1" d="M1511.6,280.53s-341.41,7.72-702.51.67-523.51-2.86-523.51-2.86C19.37,284.87,59.6,288-89,281.57V271.23s43.46-2.94,255.79.45c173.56,2.77,284.32,2.26,594.69-.38,111.28-.92,276.17.76,374.62,1.14,140.68.53,149.32-3.6,371,1Z"/></clipPath><clipPath id="clip-path-2"><path class="cls-1" d="M550.93,261.83,579.17,205,590,209.41l10-1.48,14.13-14.77s12.51-31.74,15-33.21,24.15-37.66,24.15-37.66,16.61-8.12,19.14-8.12S689.78,126,689.78,126l7.45-3.69,7.44-14.77,24.91-14.07,21.61,28.8,6.64,18.45,8.31,5.91,24.93,65,12.47,3.69,9.14-3,19.92,33.26,5,14,6.65,32.49L843.41,315,826,337.14l1.69,51-14.12,7.38V437.6L820.18,476l-23.27,36.17-27.42,63.5-49,58.33-10-18.46-20-8.89.83-17-18.28-36.17-13.3-20.64-10-5.9-9.14,10.34L605,518.79l-23.27-24.36,5.82-28.8,18.28-25.84-16.62-23.63-16.62-20s.83-10.34.83-12.55V365.2l-24.1-30.26L541,299.5s-18.28-12.56-13.31-17.75,12.47-22.15,12.47-22.15Z"/></clipPath></defs><title>assberg_art_browser</title><g id="sky_sea_background" data-name="sky sea background"><rect class="cls-2" x="-59.25" y="274.72" width="1495.66" height="434.85"/><rect class="cls-3" x="-59.25" width="1495.66" height="275.03"/></g><g id="ASSBERG"><g id="back_waterline" data-name="back waterline"><g class="cls-4"><path class="cls-5" d="M1469.24,281.27s-299,7-660.18-.09-523.5-2.86-523.5-2.86c-266.22,6.53-297.84,6.85-446.46.38l8.44-6.73s106.86-3.69,319.21-.31c173.56,2.77,284.32,2.26,594.69-.38,111.28-.92,276.17.76,374.62,1.14,140.68.54,111.29-4.21,333.07.42Z"/><path class="cls-6" d="M-177.82,290.5c15.17-2.18,85.24-14.7,204.57-12.45,104.14,2,323.59,12.45,323.59,12.45S865.49,280,956.61,278.05s154.35,0,217.59,8.52S1243,280,1315.67,278.7s186,13.11,186,13.11Z"/><path class="cls-7" d="M-138.76,258.71s243.63,17.69,286.39,18.34,252.91-17,323.59-14.41S1146.3,277.71,1189,276.4s165.52-2,239.89-11.14S-138.76,258.71-138.76,258.71Z"/></g></g><g id="Assberg_Final" data-name="Assberg Final"><g class="cls-8"><path class="cls-9" d="M550.93,261.83,579.17,205,590,209.41l10-1.48,14.13-14.77s12.51-31.74,15-33.21,24.15-37.66,24.15-37.66,16.61-8.12,19.14-8.12S689.78,126,689.78,126l7.45-3.69,7.44-14.77,24.91-14.07,21.61,28.8,6.64,18.45,8.31,5.91,24.93,65,12.47,3.69,9.14-3,19.92,33.26,5,14,6.65,32.49L843.41,315,826,337.14l1.69,51-14.12,7.38V437.6L820.18,476l-23.27,36.17-27.42,63.5-49,58.33-10-18.46-20-8.89.83-17-18.28-36.17-13.3-20.64-10-5.9-9.14,10.34L605,518.79l-23.27-24.36,5.82-28.8,18.28-25.84-16.62-23.63-16.62-20s.83-10.34.83-12.55V365.2l-24.1-30.26L541,299.5s-18.28-12.56-13.31-17.75,12.47-22.15,12.47-22.15Z"/><polygon class="cls-10" points="572.01 344.47 561.88 393.57 614.09 415.38 660.85 399.02 640.59 333.56 572.01 344.47"/><polygon class="cls-11" points="580.31 361.98 604.52 312.42 566.07 276.02 537.5 275.24 524.4 282.1 539.66 316.39 549.46 344.84 569.06 366.88 580.31 361.98"/><polygon class="cls-12" points="817.61 475.06 795.55 369.14 689.32 335.24 562.49 497.11 656.24 549.54 817.61 475.06"/><polygon class="cls-13" points="573.37 365.2 612.06 271.16 683.39 342.57 649.5 404.4 573.37 365.2"/><polyline class="cls-14" points="587.49 465.62 630.26 450.02 605.77 439.78"/><polyline class="cls-15" points="581.67 494.42 623.58 494.67 630.26 450.02 652.39 459.13 649.5 404.4 572.54 396.21"/><polyline class="cls-16" points="691.36 589.66 718.25 566.78 690.9 509.25 659.78 532.81"/><polygon class="cls-16" points="710.46 615.5 718.25 566.78 685.46 594.38 684.39 612.75 710.46 615.5"/><polyline class="cls-17" points="527.66 281.78 556.54 287.21 565.83 308.42 549.27 334.94 540.96 299.49"/><polyline class="cls-18" points="589.98 209.42 601.93 222.11 625.74 223.6 599.95 207.94"/><polygon class="cls-19" points="614.08 193.17 627.23 199.42 625.74 223.6 588.79 200.69 614.08 193.17"/><polyline class="cls-20" points="565.83 308.42 583.7 293.92 592.62 318.84 615.72 361.42 641 385.3 664.89 439.38 676.13 447.11 687.37 442.9 717.57 376.86 716.87 306.62 703.87 271.59 648.8 252.25 620.15 253.36 601.93 222.11 584.93 203.59 579.18 204.99 550.93 261.84 584.44 271.21 556.54 287.21"/><path class="cls-21" d="M697.17,122.29l15.59,12.38s-11.53.75-13.39,1.06-9.72-9.8-9.72-9.8"/><polygon class="cls-19" points="751.17 122.29 729.57 93.5 725.44 178.57 763.01 209.09 759.3 220.99 803.53 215.32 800.96 244.05 832.6 245.6 812.66 212.37 751.17 122.29"/><polyline class="cls-21" points="757.82 140.76 743.67 142.86 749.99 152.16 756.32 152.16 764.88 168.53 766.13 146.66"/><path class="cls-19" d="M823.78,301.1l-41.41-29.9-14.14-17.86S741.07,240,740,239.19s-34.22-13.39-34.22-13.39l-21.59-64-23.4-6-7.81,3-25.7,40.56,21.57,52.83,119.42,94.4,55.56-45.52"/><polyline class="cls-18" points="660.71 155.88 676.72 170.05 684.14 161.84"/><path class="cls-22" d="M633.57,274.3l29.1-74.81L694.21,225s8.83-55.9,10.71-58.24,25.35-31.92,25.35-31.92L794.1,236.17l-15,53.77L704,311l-23.46,46.81Z"/><polyline class="cls-23" points="769.45 575.63 770.26 494.88 751.99 496.28 777.98 449.93 775.3 359.07 796.95 313.65 844.24 292.11 849.02 316.28 824.63 428.69 828.2 486.98 769.45 575.63"/><polyline class="cls-24" points="825.95 337.15 795.55 369.14 801.16 382.49 827.15 380.38"/><polyline class="cls-25" points="813.49 395.48 801.16 431.66 813.1 421.12"/><polygon class="cls-25" points="777.98 449.93 766.74 438.68 751.29 434.47 742.86 447.81 721.08 449.21 690.9 509.25 707.32 611.18 720.43 633.96 774.31 573.48 777.98 449.93"/><polygon class="cls-26" points="728.46 257.15 804.07 332.77 748.19 410.02 732.57 474.95 684.08 395.23 693.12 302.35 728.46 257.15"/><polygon class="cls-27" points="692.3 542.34 720.24 499.6 742.43 566.99 692.3 542.34"/><path class="cls-11" d="M742.43,173.32c-3.29,0-55.06,64.89-55.06,64.89l23.83,11.51Z"/><polyline class="cls-15" points="700.62 367.56 723.74 386.3 747.26 364.52 755.48 379.4 778.2 347.77 739.15 309.06"/><path class="cls-28" d="M653.19,122.29l-15.29,45.5-10.64,31.62-1.49,24.18L628,273.68,598.5,254.09,566,299.27s-26.6-36.53-25.86-39.65,39.8-21.17,43.69-22S653.19,122.29,653.19,122.29Z"/><path class="cls-29" d="M624.37,304.24s-8.83-55.91-10.72-58.25-25.35-31.91-25.35-31.91l-63.83,101.3,15,53.77"/><path class="cls-29" d="M850.42,289s-11.46,18.09-12.7,18.52l-16.85,6.65L801.06,267.1l14.37-16.21"/><path class="cls-29" d="M725.62,163.25s-11.46,18.08-12.7,18.52l-16.85,6.65-19.78-47.1,14.33-16.17"/><polygon class="cls-9" points="639.92 161.42 670.44 268.21 696.97 227.99 639.92 161.42"/><polygon class="cls-9" points="724.77 124.84 732.09 168.74 737.94 148.98 784.03 203.12 743.79 128.5 724.77 124.84"/><polygon class="cls-9" points="581.4 210.43 598.5 254.08 583.82 237.68 560.18 263.1 581.4 210.43"/><polygon class="cls-9" points="716.73 250.66 745.98 230.18 765.74 233.84 803.77 258.71 837.59 259.63 849.86 281.38 717.46 274.08 675.76 274.8 709.41 263.83 743.79 264.56 716.73 250.66"/></g></g><g id="Assberg_letters" data-name="Assberg letters"><g class="cls-30"><path class="cls-31" d="M738.41,545.07c.87-1.18,1.35-1.78,2.32-3l-1.59-1.46c1.16-1.38,1.78-2.13,3-3.49,2.05,2,3.06,3,5.06,5a77.74,77.74,0,0,0-7,10.11c-4.91-4.26-7.45-6.39-12.18-10.36,5-7,10.8-11.5,18.08-19,3.2,3.53,4.73,5.43,7.7,9.28-1.07,1.43-1.63,2.13-2.8,3.66-2.13-2.41-3.19-3.6-5.32-5.92-4.5,4.81-7.15,7.44-10.89,12.06C736.29,543.19,737,543.82,738.41,545.07Z"/><path class="cls-31" d="M756,534.94c2.49,3.36,3.69,5.07,6,8.44-.64,1.4-1,2.12-1.72,3.6-1.49-1.91-2.26-2.88-3.82-4.81-.93,1.51-1.42,2.28-2.39,3.83,1.66,1.84,2.46,2.76,4.06,4.58-.78,1.51-1.18,2.27-2,3.81-1.73-1.81-2.61-2.73-4.41-4.56-1.18,1.94-1.76,2.91-2.78,4.79,2.13,2,3.19,3,5.32,5-.67,1.51-1,2.25-1.51,3.69-3.83-3.47-5.83-5.26-9.86-8.79C746.71,547.13,751,542.39,756,534.94Z"/><path class="cls-31" d="M769.32,558.91,767.09,556c-1.81,6.22-3.27,10-4.68,16.22l-3.71-3.43c1.74-6.22,3.49-10,5.78-16.24L762,549.26c.66-1.48,1-2.2,1.53-3.6,2.72,4,4,6,6.54,9.77C769.81,556.76,769.65,557.46,769.32,558.91Z"/></g><g class="cls-30"><path class="cls-16" d="M706.27,554.84c-4-3.74-5.68-5.43-8.08-7.82,3.4-.37,5.43-.52,9.34-1.06.78.85,1.24,1.33,2.26,2.38-1.48.23-2.22.33-3.67.52l1.78,1.77c1.84-.29,2.8-.44,4.68-.78a23.09,23.09,0,0,1,3.65-5.43c4.46-1.2,6.47-2,8.34-4.59,1.84,2.13,3.1,3.47,6,6.39-1.58,1.84-2.81,2.55-5.6,3.76-1.06-1.06-1.53-1.57-2.44-2.53a17.51,17.51,0,0,0,2.4-1.13c-.65-.69-1-1.06-1.53-1.65a17.65,17.65,0,0,1-3,1.33,38.41,38.41,0,0,0-2.48,6.39C713.11,553.61,710.43,554,706.27,554.84Z"/><path class="cls-16" d="M741.48,557.05c-5.18,6.38-12.31,7.93-20.21,11.43-5.43-4.68-8.1-7.14-12.66-11.4,9.43-2.27,18.37-2.79,23.72-9C735.72,551.45,737.65,553.33,741.48,557.05ZM720.81,563c6-2,9.68-3.08,14.36-6.38l-2.88-2.81c-4.86,3.19-8.83,4.12-15.12,5.9,1.44,1.27,2.17,1.94,3.66,3.29Z"/><path class="cls-16" d="M752,567.05l3.64,3.4c-4,6.38-8.1,9.15-13.65,13.83-1.7-1.06-2.58-1.66-4.37-2.92a118.16,118.16,0,0,0,10.08-7.92,67.28,67.28,0,0,1-13.7,5.32l-1.47-1.12c2.62-3.84,4.85-5.73,8.29-10-4.61,3.27-7.63,4.57-12,7.13-1.83-1.48-2.75-2.24-4.57-3.77,7.54-3.76,14.25-5.49,19.33-12l4,3.81c-1.48,4.11-2.89,5.92-5.32,9.41C746.8,570.55,748.93,569.47,752,567.05Z"/><path class="cls-16" d="M757.37,572.07c2.6,2.41,3.76,3.46,5.46,4.93-.52,1-.79,1.5-1.39,2.51a37.48,37.48,0,0,1-3.19-2.26c-.76,1.11-1.16,1.68-2,2.76a24.34,24.34,0,0,0,3.47,2c-.66,1-1,1.49-1.73,2.46a21.16,21.16,0,0,1-3.85-1.82c-1.13,1.3-1.72,1.94-2.89,3.19a18.17,18.17,0,0,0,4.68,1.73c-.78.89-1.17,1.33-2,2.12-3.19-.48-5.09-1.35-9.26-3.71C749.93,581.18,753.62,578.28,757.37,572.07Z"/></g><g class="cls-30"><path class="cls-31" d="M720.56,406.34c-1.77,1.07-2.64,1.59-4.37,2.58a55.79,55.79,0,0,0,3.34,5.41c-2,1.16-3,1.76-5.12,3l-8.51-14.46c.87-1.8,1.33-2.74,2.31-4.63a57.71,57.71,0,0,0,7.35-5c2.41-.52,3.61-.81,6-1.16,2.88,6.05,4,12.33,7.2,17l-5,2.81A33.07,33.07,0,0,1,720.56,406.34Zm-6.26-.81c1.77-1.06,2.66-1.66,4.48-2.87-1.06-2.28-1.62-3.45-2.72-5.45-1.91,1.42-2.84,2.13-4.65,3.25,1.16,1.94,1.73,3,2.89,5.07Z"/><path class="cls-31" d="M744.33,400.47c-5.06,2.82-7.56,4.19-12.62,7a23.84,23.84,0,0,1-2.6-6.05c2.08-1.33,3.11-2,5.18-3.38.32,1.3.48,1.93.82,3.08l3.11-1.86c-.4-1.6-.58-2.51-.93-4.4a32.53,32.53,0,0,0-10.18-.54c-1.18-3.87-1.75-5.85-3.12-8,6.22-5.32,9.48-8.44,15.64-13.67.67,1.71.91,3.38,1.37,7-2,1.66-3.08,2.53-5.15,4.26-.23-1.19-.33-1.76-.57-2.79l-3.86,3.35c.33,1.17.49,1.83.81,3.2a22.85,22.85,0,0,1,10,1.06C742.87,394.57,743.19,397.7,744.33,400.47Z"/><path class="cls-31" d="M760.25,391.42c-5.32,3.11-7.88,4.56-13,7.44-.78-2-1.06-4-1.47-8.2,2.06-1.29,3.09-1.91,5.12-3.12.13,1.76.2,2.6.38,4.09l3.1-1.72c-.21-2-.3-3.14-.43-5.58-3.41-2-5.12-3.07-8.88-4-.47-5.67-.66-8.51-1.47-10.85,6-4.83,8.92-7,13.83-8.94.51,1.23.62,3.09.82,7.29a41.66,41.66,0,0,0-4.55,2.59c-.08-1.5-.12-2.21-.23-3.45-1.37.87-2.06,1.34-3.49,2.36.14,1.51.21,2.38.31,4.26,3.61,1.19,5.23,2.52,8.51,5C759.09,385.38,759.23,389.19,760.25,391.42Z"/></g><g class="cls-30"><path class="cls-16" d="M598.42,463.82l3.55-.68c1.86,4.32,2.81,6.45,4.75,10.64l-2.91.65c-1.19-2.64-1.77-4-2.93-6.66.24,2.87.36,4.31.61,7.18l-.93.21c-2.13-2.44-3.19-3.7-5.22-6.24,1.13,2.73,1.71,4.09,2.87,6.78l-2.91.69c-1.84-4.37-2.74-6.58-4.5-11.07l3.57-.71c1.71,2,2.57,3.05,4.31,5Z"/><path class="cls-16" d="M612.29,461.27c2,4.17,3,6.21,5,10.25-3.46.73-5.19,1.07-8.67,1.85-2-4.17-2.92-6.27-4.79-10.57C607.22,462.17,608.91,461.86,612.29,461.27Zm1.07,9c-1.25-2.59-1.88-3.89-3.09-6.52l-2.6.49c1.21,2.66,1.82,4,3.06,6.57Z"/><path class="cls-16" d="M619.56,460l3-.5c1.3,4.13,2,6.19,3.29,10.24l-4.81,1c-2.84-3.82-4.26-5.78-7-9.79l3.1-.52c2,3.06,3,4.57,5.08,7.54C621.18,464.82,620.63,463.24,619.56,460Z"/><path class="cls-16" d="M624.4,459.26c2.78-.44,4.17-.65,6.94-1.07l1.07,1.83-4,.63,1.06,1.87,3.8-.62,1.07,1.78-3.79.65,1.29,2.31,4.1-.73,1.07,1.78L629.82,469C627.5,465.19,626.46,463.24,624.4,459.26Z"/><path class="cls-16" d="M645,456.3l3-.38c.42,3.84.63,5.77,1.07,9.65l-3.08.52c-.13-1.5-.21-2.26-.35-3.76-2.57-2.05-3.85-3.11-6.38-5.32l3-.4c1.22,1.06,1.83,1.61,3.06,2.67C645.16,458.12,645.11,457.51,645,456.3Z"/><path class="cls-16" d="M657.89,454.78c2.36,3.46,3.56,5.16,6,8.51-3.32.48-5,.73-8.33,1.25-2.36-3.45-3.52-5.22-5.82-8.8C653,455.31,654.64,455.15,657.89,454.78Zm2,7.34c-1.51-2.13-2.26-3.19-3.74-5.4l-2.49.3c1.47,2.22,2.21,3.31,3.71,5.47Z"/><path class="cls-16" d="M673.92,461.87c-3.29.43-4.94.65-8.25,1.13-2.45-3.3-3.66-5-6-8.41l2.88-.3c2,2.74,2.94,4.1,4.94,6.74l2.38-.3c-2-2.63-3-4-5-6.67l2.85-.28C670.14,457.09,671.39,458.7,673.92,461.87Z"/><path class="cls-16" d="M677,458.34l-.74.09c.91,1.14,1.38,1.7,2.31,2.82l-2.88.36c-2.19-2.7-3.27-4.08-5.4-6.87l1.17-1.33c2.3-.21,3.45-.3,5.74-.48,1.61,2,2.43,3,4.08,4.94l-1.54.16c1.66,1.07,2.49,1.57,4.17,2.58L681,461C679.4,460,678.6,459.41,677,458.34Zm-1.41-3.68-2.13.2,1.65,2.13,2.18-.22Z"/></g><g class="cls-30"><path class="cls-32" d="M653.29,506.22c-.36,1.17-.53,1.75-.88,2.91L657,510c2.28,2.37,3.41,3.57,5.65,6-.55,1.6-.83,2.39-1.35,4-5.32,1.39-8,2.06-13.17,3.36-7.32-7.24-11-10.8-18.66-17.77.39-1.57.59-2.37,1-4,5.58-1.62,8.4-2.45,14.08-4.16C648.06,500.9,649.81,502.69,653.29,506.22Zm-11-3-5.56,1.59c2,1.86,2.93,2.8,4.88,4.68l5.5-1.53c-1.93-1.86-2.89-2.83-4.83-4.7Zm12.11,13.37c-1.73-1.77-2.59-2.64-4.32-4.39l-4.46,1.21c1.76,1.73,2.63,2.59,4.37,4.34Z"/><path class="cls-32" d="M676.24,510.29,671,511.78c2.63,2.92,3.93,4.39,6.5,7.36l-6,1.62c-6.71-7.45-10.14-11.16-17.14-18.37.62-1.94.94-2.91,1.59-4.88,3.36-1.06,5.05-1.54,8.51-2.59,3.26.77,4.9,1.17,8.14,2,6.67,7.52,9.93,11.34,16.34,19.15l-6.18,1.71C680.1,514.73,678.82,513.25,676.24,510.29Zm-9-2.71L672.5,506c-2.3-2.6-3.47-3.89-5.81-6.46l-5.39,1.61C663.65,503.73,664.89,505,667.19,507.58Z"/><path class="cls-32" d="M682.26,485c3.28.78,4.47.28,7.3.25,4.67,5.22,6.81,7.57,10.64,11.78-.53,2.21-.76,3.35-1.17,5.71-3.87,4.83-5.49,7.78-10.86,9.32q-9.46-11.55-19.52-22.63C674.09,487.72,676.8,486.83,682.26,485Zm2.13,4.86-5.32,1.72c4.83,5.62,7.21,8.51,11.89,14.22,2.08-.61,2.3-2.56,3.83-4.31-3.85-4.21-5.64-5.94-10.4-11.65Z"/><path class="cls-32" d="M710.58,483.07c-1.89,1.41-2.82,2.12-4.65,3.65,1.63,1.72,2.4,2.53,3.85,4-2,2-3,3-4.86,5.14-4.18-4.44-6.55-7-11.87-12.92a57.29,57.29,0,0,1,2.2-5.47c3.31-1.74,5-2.56,8.45-4.11,2.88,0,4.25,0,7-.14,4,4.25,5.09,4.69,8.73,9-2.81.51-3.34,2.47-5.41,4.4C712.76,485.3,712.06,484.6,710.58,483.07Zm-7.08,1.06c1.92-1.38,2.9-2.05,4.88-3.36-1.4-1.47-2.13-2.26-3.67-3.9-2.13,1.14-3.19,1.73-5.21,2.94,1.66,1.8,2.47,2.67,4,4.31Z"/><path class="cls-32" d="M741.85,478c-7.36,1.45-11,2.13-18.22,3.47-1.32-1.61-2-2.39-3.35-4l7-1.38,1.29,1.58,4.34-.85c-.66-.84-1-1.26-1.66-2.13-5.54-.39-8.93-1.75-13.83-.72-1.62-1.64-2.5-2.53-4.37-4.5,6.88-2.59,10.83-3,18.34-4.69,1.28,1.52,1.91,2.29,3.19,3.83L728,470l-1.14-1.35-4.73,1.07,1.44,1.63c5.65.3,8.46.47,14,.85C739.36,474.5,740.17,475.65,741.85,478Z"/><path class="cls-32" d="M764.73,473.3c-7.52,1.6-11.25,2.36-18.63,3.83-1.19-1.72-1.8-2.57-3-4.26l7.18-1.52,1.16,1.71,4.44-.94-1.49-2.25c-5.55-.39-8.33-.57-14-.9-1.63-2.13-2.46-3.19-4.15-5.27,7.54-1.73,11.35-2.62,19-4.47,1.16,1.62,1.73,2.44,2.84,4.1l-6.67,1.54-1.06-1.44-4.83,1.06,1.3,1.75c5.65.3,8.44.49,14,.86C762.48,469.58,763.24,470.81,764.73,473.3Z"/></g><g class="cls-30"><path class="cls-16" d="M615.58,493.13l-8.76,2.45,2.65,9.14-10.4,3.4-6.65-24.81c2.65-2.48,4-3.67,6.62-6l13.47-2.23c3.67,1.13,5.52,1.65,9.2,2.6l7,20.73-10.47,3.42Zm-10.27-2.87,8.73-2.13-2.39-7.67L603,482.17Z"/><path class="cls-16" d="M661.7,487.61l-26.77,8.74L632.3,489l10.17-2.82,1.07,2.69,6.29-1.87-1.39-3.35c-7.33-.34-11-.65-18.26-1.51l-3.39-9.46,25.75-4.25,2.62,5.74-9.12,2-.93-2.21-6.61,1.3,1.12,2.85c7.29.79,11,1.06,18.29,1.33Z"/><path class="cls-16" d="M694.67,476.84l-26.75,8.75-2.79-5.68,10.17-2.82,1.07,2,6.29-1.87-1.46-2.49c-7.38.2-11.06.16-18.39-.17l-3.58-7.3L685,463l2.78,4.14-9.13,2-1-1.64-6.6,1.3,1.18,2.13c7.34.25,11,.25,18.4,0Z"/></g><g class="cls-30"><path class="cls-33" d="M771.45,537.58,768,532.36l-.93,1.8L763,527.94c1.33-2.34,2-3.51,3.36-5.83,4.64,7,6.92,10.44,11.14,16.83-2.41,5.5-3.59,8.29-5.94,13.83-7.88-12.37-15.86-24.69-23.8-37,2.88-3.78,4.34-5.67,7.35-9.44l4.35,6.65c-1.77,2.54-2.64,3.82-4.38,6.38,6,9.17,9,13.74,14.47,22.24Z"/><path class="cls-33" d="M774.25,519.47l-.62,1.06,7.26,10.8c-.84,1.86-1.26,2.81-2.13,4.69q-9.19-13.83-18.38-27.66c-.48-2.94-.71-4.39-1.07-7.23,2.3-2.78,3.47-4.15,5.85-6.85,5,7.63,7.62,11.51,12.59,18.8l-1.3,2.25c3.5,3.19,5.2,4.72,8.4,7.45-.88,1.84-1.31,2.77-2.13,4.63C779.48,524.48,777.77,522.89,774.25,519.47Zm-8-15.89c-.83,1.06-1.25,1.67-2.07,2.78,2.23,3.38,3.35,5.05,5.56,8.36.75-1.23,1.13-1.85,1.9-3.06Z"/><path class="cls-33" d="M775.91,483c6.49,10.13,10.3,15.41,16.71,24.47-2.65,4.88-3.92,7.45-6.38,12.56q-9.65-13.9-19-28C770.61,488.28,772.33,486.47,775.91,483Zm11.32,24.28c-4.35-6.22-6.68-9.58-11.12-16.24-1,1.18-1.5,1.77-2.49,3,4.63,7,7,10.45,11.54,16.93C786,509.41,786.37,508.69,787.23,507.28Z"/><path class="cls-33" d="M798.3,497.56c-.91,1.49-1.36,2.25-2.25,3.78-6.85-7-10.9-11.37-18.22-20.21,1.27-1.19,1.91-1.78,3.2-2.93,4.05,5.05,6.21,7.56,10.35,12.16-3.09-6-4.65-9-7.22-14.89l2.33-1.93c3.8,4.48,5.84,6.71,9.77,10.71-2.84-5.32-4.26-8-6.52-13.23,1.35-1.06,2-1.51,3.4-2.46,3.19,8.31,5.81,12.89,10.22,21.14-1,1.4-1.43,2.13-2.37,3.55-4-3.77-6.12-6-10.36-10.57C793.61,488.73,795.23,491.78,798.3,497.56Z"/><path class="cls-33" d="M802.39,463.3c1.35-.76,2-1.12,3.39-1.82a66.32,66.32,0,0,0,9.29,13.59c-1.12,1.18-1.67,1.78-2.77,3a64.22,64.22,0,0,1-9.18-5.67c2.52,3.71,3.92,5.54,6.52,8.85-1,1.24-1.51,1.88-2.49,3.19a134.2,134.2,0,0,1-11.63-16.92c1.36-.93,2.05-1.38,3.44-2.24a75.25,75.25,0,0,0,8.95,6.66A68.84,68.84,0,0,1,802.39,463.3Z"/></g><g class="cls-30"><path class="cls-13" d="M716,489.07c2.35.69,3.48,1.06,5.62,1.71a164.13,164.13,0,0,1,13.73,27.58,44.67,44.67,0,0,0,.45,5.9c-1.32,2-1.94,3-3.09,5a253.85,253.85,0,0,0-26.41-31A72.66,72.66,0,0,1,716,489.07Zm6.24,10.42-3.7,1.77c5.25,7.89,7.68,11.83,12.18,19.68.71-.76,1.07-1.13,1.78-1.88-3.73-7.8-5.73-11.72-10.21-19.57Z"/><path class="cls-13" d="M720.71,485.14l16.12-4.46a76.8,76.8,0,0,1,3.13,9.21c-2.7,1.12-4,1.69-6.66,2.83.69,2.39,1.07,3.59,1.65,6,2.13-1.06,3.19-1.64,5.42-2.74.25,2.31.36,3.47.54,5.77-1.82,1.06-2.72,1.66-4.48,2.76.68,3,1,4.47,1.57,7.45,1.42-1.22,2.13-1.84,3.63-3.07.07,2.33.09,3.5.09,5.82-1.92,2.13-2.83,3.26-4.53,5.44A159.83,159.83,0,0,0,720.71,485.14Z"/><path class="cls-13" d="M740.69,480.68c7.22-1.72,10.79-2.59,17.86-4.33-1.07,3.37-1.68,5.06-2.82,8.42-2.76,1.13-4.13,1.69-6.82,2.82-.21,2.34-.34,3.52-.63,5.86,2.19-1.06,3.31-1.64,5.57-2.73-.64,2.25-1,3.39-1.69,5.64-1.88,1.07-2.8,1.65-4.62,2.76-.45,2.91-.71,4.37-1.27,7.28,1.48-1.23,2.23-1.83,3.79-3.06-.83,2.28-1.27,3.42-2.13,5.69-2,2.13-3,3.25-4.81,5.43C744.14,502.92,742.55,492,740.69,480.68Z"/><path class="cls-13" d="M749.22,507.67a134.84,134.84,0,0,0,9.63-26.36c1.86-2.51,2.85-3.77,4.94-6.25,5.49-1.14,8.17-1.71,13.42-2.86-5.74,8.75-8.88,13.11-15.66,21.8-2.35,1.52-3.5,2.28-5.74,3.81a39.88,39.88,0,0,1-3.32,6.59C751.14,505.7,750.48,506.35,749.22,507.67Zm19-28-4,1.57c-2,4.39-3.12,6.59-5.42,11l3-1.63c2.7-4.36,4-6.54,6.44-10.92Z"/></g><g class="cls-30"><path class="cls-13" d="M653.9,318.76c-4.67-6.39-7-9.58-11.76-16q13.17-10.41,26.42-20.62l3.14,5.42c-8.3,6.75-12.42,10.15-20.58,16.94l3.19,4.57c7.89-6.86,11.85-10.29,19.86-17.12l3.08,5.32Q665.52,308,653.9,318.76Z"/><path class="cls-13" d="M668,328.61l3.19-3.42-1.53-2.27L673.4,319c2,3.11,3,4.66,5,7.77-4.11,4.65-6.15,7-10.19,11.63-4.71-6.5-7.07-9.74-11.84-16.26q11.29-10.86,22.76-21.55c3.33,5.85,5,8.77,8.25,14.6l-3.84,4.26c-2.19-3.69-3.29-5.55-5.5-9.24-5.42,5.41-8.11,8.11-13.45,13.52Z"/><path class="cls-13" d="M670.69,341.82c7.51-9,11.31-13.5,19-22.45l3,5.44c-5.91,7.34-8.82,11-14.59,18.38,2.13,3.19,3.2,4.73,5.4,7.86l-3.09,4.4C676.59,350,674.62,347.28,670.69,341.82Z"/><path class="cls-13" d="M704.39,346.13l3,5.51a202.92,202.92,0,0,1-18.88,15.09L684.39,361c3.28-2.21,4.88-3.33,8-5.59,2.22-8,3.48-11.93,6.28-19.77l3,5.46c-1.33,3.87-2,5.81-3.19,9.72C700.91,348.94,702.12,348,704.39,346.13Z"/></g><g class="cls-30"><path class="cls-34" d="M700.27,284l8.25-2.88,9.78,26.41-5.9,3.55-6.52-17.22c.58,7.78.94,11.79,1.79,20.06l-1.9,1.14c-4.7-6.09-7.13-9.26-12.11-15.85l7.4,18.7-5.86,3.52-12.5-31.27,8.2-2.87c4.25,5.25,6.25,7.8,10.26,12.69C700.7,293.45,700.53,290.26,700.27,284Z"/><path class="cls-34" d="M726.59,274.79l7.27-2.54a231.18,231.18,0,0,0-2.92,27.66l-6.47,3.88c.15-4.77.27-7.09.56-11.61-4.7-4.68-7.16-7.24-12.27-12.56l7.19-2.51c2.34,2.56,3.49,3.81,5.76,6.22C726,279.84,726.22,278.13,726.59,274.79Z"/></g><g class="cls-30"><path class="cls-34" d="M714.26,333.09l-3.78,2.24c1.81,3,2.69,4.42,4.88,5.9l-3.63,2.12c-6.32-3.28-7-10.92-13.42-17,.18-2,.28-3,.45-4.68l6.51-3.93a32.43,32.43,0,0,1,6.38.48c5.32,6.78,7.15,13.94,11.87,18.43-1.94,1.06-2.88,1.62-4.65,2.63C716.9,337.57,716,336.13,714.26,333.09Zm-6.38-2.3,3.81-2.3a45.59,45.59,0,0,0-4.26-6.8l-3.94,2.4a37.46,37.46,0,0,1,4.39,6.69Z"/><path class="cls-34" d="M739.62,328c-5.23,2.63-8,4.14-13.16,7a28.23,28.23,0,0,1-4.25-6c2-1.14,3-1.7,5-2.84.7,1.14,1.06,1.69,1.72,2.71l3.19-1.73c-.89-1.34-1.36-2.13-2.31-3.62-4.67-.6-7-1-11.46-1.64-2.33-3.93-3.54-6-6.14-8.36l12.42-7.5c1.58,2,2.5,3.34,4.38,6.15l-4.32,2.59c-.65-1-1-1.47-1.62-2.39l-3.12,1.86c.79,1.07,1.19,1.72,2,2.95,4.56.58,6.9,1,11.63,1.72C736.25,323,737.62,325.2,739.62,328Z"/><path class="cls-34" d="M754.25,321.52a97.21,97.21,0,0,0-11.59,5L738.41,320c2-1.06,2.94-1.54,4.82-2.5.77,1.19,1.15,1.78,1.85,2.89,1.16-.57,1.73-.83,2.85-1.36-.89-1.49-1.4-2.28-2.44-3.9-4.5-1.06-6.93-1.55-11.59-2.31-2.64-4-4-6-6-8.79l12.42-7.5a40.4,40.4,0,0,0,3.62,7.12l-4,2.26c-.67-1.07-1-1.58-1.61-2.58l-3.1,1.81c.76,1.19,1.18,1.82,2,3.1A72.25,72.25,0,0,1,748.53,311C751.35,315.53,752.86,317.92,754.25,321.52Z"/></g><g class="cls-30"><path class="cls-34" d="M574.73,314.47c.93,1.46,1.41,2.18,2.38,3.61a182.47,182.47,0,0,1,13.32-12.77c1,1.83,1.51,2.74,2.54,4.55-10.57,9.38-19.69,20.58-31.81,28.08-1.34-1.51-2-2.28-3.32-3.86,5.43-2.89,8-5.2,13.2-10.05-1.07-1.38-1.51-2.12-2.5-3.5-5.32,4.93-7.94,7.26-13.5,10.08-1.3-1.64-1.95-2.48-3.2-4.26,13.28-7.24,23.3-19.43,34.13-29.7.93,1.87,1.41,2.8,2.37,4.64C582.78,306.08,580.12,309,574.73,314.47Z"/><path class="cls-34" d="M579.38,339.19c-1.07-1.22-1.61-1.84-2.67-3.09a55,55,0,0,1-10.16,7.67c-1.37-1.42-2-2.13-3.39-3.61,9.91-6.06,18.09-15.15,26.37-23.19a57.29,57.29,0,0,1,7-1c1.4,2.35,2.13,3.53,3.57,5.86-1.06,2.88-1.59,4.34-2.58,7.26-7.81,7.21-15.69,15.2-24.68,21-1.39-1.34-2.13-2-3.45-3.41A56.3,56.3,0,0,0,579.38,339.19Zm3.1-8.51c1.07,1.31,1.53,2,2.56,3.26,3.46-3.31,5.19-5,8.69-8.24-1-1.42-1.45-2.12-2.41-3.56C587.77,325.45,586,327.25,582.48,330.68Z"/><path class="cls-34" d="M574.93,352.05c10.57-6.94,19.15-16.34,29-24.17,1.13,1.77,1.69,2.66,2.83,4.43-8,6-15.16,13-23,19.26,1.85,1.87,2.79,2.79,4.65,4.64a55.64,55.64,0,0,1-5.22,3.54C579.9,356.73,578.23,355.2,574.93,352.05Z"/><path class="cls-34" d="M600.12,356.79a93.78,93.78,0,0,1-11.38,8l-3.47-3.19c9.36-5.61,14-10.86,23.4-17.84a47.35,47.35,0,0,1,5.71.26c1.86,2.89,2.78,4.33,4.63,7.25-2,1.16-3,1.79-4.93,3.12-1.52-2.12-2.29-3.25-3.82-5.4-2,1.49-3.08,2.29-5.13,3.87l3.65,4.64L603.92,361C602.39,359.41,601.63,358.51,600.12,356.79Z"/><path class="cls-34" d="M610.16,360.83c1.8,2.29,2.7,3.45,4.46,5.78l-4.67,3c-1.83-2.13-2.75-3.26-4.61-5.39Z"/><path class="cls-34" d="M615.86,379.84c-1.07-1.3-1.57-1.94-2.63-3.19-3.13,1.75-4.69,2.61-7.75,4.12-1.33-1.36-2-2-3.34-3.35,8-4.15,12.26-7.39,20.44-12a58.37,58.37,0,0,1,6,1.46c1.43,2.44,2.12,3.66,3.54,6.12-.63,2.13-.93,3.14-1.52,5.2-7.56,3.5-11.61,5.72-19,9-1.3-1.45-1.95-2.13-3.27-3.57C611.26,382.24,612.76,381.44,615.86,379.84Zm1.9-5.77c1.06,1.36,1.53,2.05,2.53,3.43,2.72-1.44,4.1-2.13,6.79-3.53l-2.38-3.77c-2.76,1.48-4.15,2.28-6.94,3.86Z"/><path class="cls-34" d="M621.37,399.26c-3.07-4.16-4.66-6.13-7.93-9.91,2.7-1.16,4.1-1.78,6.88-3,1.17,1.57,1.76,2.36,2.91,4l-2.66,1.06c.72,1,1.06,1.46,1.8,2.45l3.42-1.33c.37-3.48.6-5.32,1.07-9,3.59-1.64,5.39-2.48,8.85-3.95,2.55,4.78,3.77,7.19,6.07,12.1-2.31.93-3.51,1.4-6,2.31-.89-1.67-1.35-2.49-2.27-4.13l2.23-.89c-.65-1.22-1-1.81-1.65-3l-2.8,1.18c-.5,3.74-.73,5.55-1.15,9.06C626.59,397.41,624.79,398,621.37,399.26Z"/><path class="cls-34" d="M630.31,413a117.42,117.42,0,0,0-7.19-11.27c2.45-.85,3.72-1.26,6.27-2.12,1.06,1.73,1.59,2.6,2.62,4.4l-2.41.72c.66,1.07,1,1.63,1.62,2.74l3.09-.86c.38-3.46.59-5.21,1.07-8.82,3.26-1.07,4.88-1.69,7.89-2.93,2.21,4.94,3.24,7.45,5.11,12.5a34,34,0,0,1-5.14,2c-.76-1.78-1.15-2.66-2-4.41.8-.25,1.19-.39,2-.67-.55-1.27-.84-1.91-1.41-3.19-1,.35-1.48.52-2.49.85-.48,3.66-.72,5.44-1.14,9C635,411.7,633.36,412,630.31,413Z"/></g><g class="cls-30"><path class="cls-27" d="M714.89,363.2,713.27,368l2.79,1c.76,3.84,1.31,7.23,2.23,12.32L716,388.51c-4.45,1.49-6.64,2.6-11.16,3.83-2.82-15-4-20.61-5.74-28.19,1.07-1.71,1.56-2.56,2.59-4.25a43.29,43.29,0,0,0,10.81-7.25C713.42,356,713.89,358.12,714.89,363.2Zm-6.09-2.73a39.14,39.14,0,0,1-4.37,2.58c.49,2.13.76,3.37,1.31,6a38.51,38.51,0,0,0,4.38-2.48C709.57,364,709.29,362.73,708.8,360.47Zm3.29,20.34c-.63-3.28-.93-4.81-1.5-7.66a37.85,37.85,0,0,1-3.62,1.91c.57,2.81.86,4.32,1.49,7.57a36.79,36.79,0,0,0,3.62-1.78Z"/><path class="cls-27" d="M722.43,386.31c-2.19-12.06-4.13-24.3-7-36.17a66.3,66.3,0,0,0,4.62-4.86c2.52,10,4,20.48,5.78,30.64a89.64,89.64,0,0,1,6.73-7.32c.58,1.82.87,2.64,1.45,4.11A105.5,105.5,0,0,0,722.43,386.31Z"/><path class="cls-27" d="M750.24,360.14c-5.32,2.84-8,4.79-13.38,9.74-4.34-11-5.84-23.18-7.78-34.71l4.84-1.4c2.53,15.36,3.77,20.6,6.25,28.07,1.56-1.18,2.33-1.73,3.88-2.74-2.49-7.34-3.68-11.1-6.22-26.44a33.64,33.64,0,0,0,4.72-2C744.61,340.59,746.37,350.78,750.24,360.14Z"/><path class="cls-27" d="M745.44,329.62a29.54,29.54,0,0,1,11.13-1.89c.58,3,.87,4.42,1.46,7.09a28.71,28.71,0,0,0-6.39.77c.59,2.75.89,4.05,1.47,6.46a30.16,30.16,0,0,1,6-.89c.58,2.3.87,3.36,1.44,5.32a29.73,29.73,0,0,0-6,1,57.82,57.82,0,0,0,1.84,5.78,29.75,29.75,0,0,1,6.48-1.21,15.52,15.52,0,0,1,1.38,4c-4.15-1.8-6.7.65-11.23,2.67C749.22,349.49,747.47,339.38,745.44,329.62Z"/></g><g class="cls-30"><path class="cls-33" d="M694.38,597.17c8.51-4.51,12.76-8,21.18-17.49a10.7,10.7,0,0,1,4.41-1.35c-8.36,9.27-12.54,12.77-20.9,17.48a12.32,12.32,0,0,1,4.47,1.34c-1.72,1.26-2.57,1.83-4.26,2.88C697.3,598.14,696.33,597.57,694.38,597.17Z"/><path class="cls-33" d="M732.43,582.81c-6.65,10.78-12.67,19.81-22.34,28.08-3.57-5.08-5.32-7-8.93-9.58,9-5.83,15.62-13.75,22.48-21.8C727.22,580.24,729.11,582.81,732.43,582.81Zm-21.28,20.51a98.84,98.84,0,0,0,14.13-15.56,17.89,17.89,0,0,0-2.71-1.79,90.11,90.11,0,0,1-14.13,14.69,29.18,29.18,0,0,1,2.71,2.62Z"/><path class="cls-33" d="M739.72,585.74a34,34,0,0,0,3.06,2.12c-9.9,11.26-17.21,23.56-24.33,36.7l-1.28-2.48c4-9.11,6-13.63,10-22.64-4.89,8.68-7.22,14.21-12.27,19.15-1.16-2.13-1.74-3.06-2.9-4.87,9.63-8.83,15.32-18.81,21.71-30.11,1.26.25,1.6-.93,3.19.79-4.26,7.2-6.11,12.1-10.08,20.4C731.67,596.09,734.23,592.11,739.72,585.74Z"/><path class="cls-33" d="M731.05,613.41c1.43-2,2.12-3,3.64-4.94a9.63,9.63,0,0,1-1.07.08c1.67-2.24,2.52-3.32,4.26-5.42a23,23,0,0,0,8.37-3.8,122.9,122.9,0,0,0-12.77,14.76c-4.19,4.09-6.81,4-11.62,6.22a157.54,157.54,0,0,1,23.4-31.91c3.44,1.85,5,2.32,7.93,2.33-2,1.73-3,2.63-4.93,4.54a10.82,10.82,0,0,1-4.69-.5,134.23,134.23,0,0,0-14.79,18.89A9.14,9.14,0,0,0,731.05,613.41Z"/></g><g class="cls-30"><path class="cls-27" d="M784.16,329l-2.72.71c-1.48,3.64-2.25,5.47-4,9.11l-3.42.83c4.5-9.3,6.38-14,10.4-23.27,1.58-2,2.34-3,3.82-5.07l3.32-1.16c.16,1.49.27,2.24.53,3.74-3,9.37-4.15,14.05-8.27,23.41l-3.47.83C782.05,334.46,782.8,332.64,784.16,329Zm-.59-4.55,2.55-.73c1.19-3.19,1.79-4.85,3-8.08l-2.3.73C785.5,319.6,784.87,321.21,783.57,324.44Z"/><path class="cls-27" d="M794.82,334.67l-8.91,2.13a72.55,72.55,0,0,0,3.32-8.66l3.19-.83a21.88,21.88,0,0,1-.94,3.37l2.07-.51a26.51,26.51,0,0,0,1.18-4.47,47.4,47.4,0,0,1-3-5.65c1.36-4.46,2-6.7,3.37-11.18,2.59-.88,3.9-1.33,6.55-2.2-.69,3.33-1.07,5-1.72,8.33l-2.6.77.71-3-1.8.55-1,3.63a50.59,50.59,0,0,0,3.12,5.69A62.12,62.12,0,0,1,794.82,334.67Z"/><path class="cls-27" d="M805.88,332.07l-9,2.12a44.2,44.2,0,0,0,2.86-8.71l3.32-.82a14.54,14.54,0,0,1-.78,3.44l2.13-.5a17.21,17.21,0,0,0,.9-4.49,63,63,0,0,1-3.89-5.7c.84-4.5,1.25-6.75,2.05-11.25,2.66-.88,4-1.32,6.74-2.19-.29,3.35-.44,5-.74,8.38l-2.67.76.38-3-1.86.55c-.21,1.46-.31,2.19-.53,3.65a64.15,64.15,0,0,0,4.07,5.75A43.29,43.29,0,0,1,805.88,332.07Z"/><path class="cls-27" d="M811.58,318.17l4.79-1.22c0,2.13,0,3.19-.07,5.32l-5.07,1.2C811.38,321.36,811.44,320.3,811.58,318.17Z"/><path class="cls-27" d="M784,350l-2.89,3.09a10.19,10.19,0,0,0,1.5,2l-.65,8.21c-1.06,1.79-1.65,2.7-2.74,4.51l-8,1.81c.42-10.4,1.45-15.41,5.84-25,1.63-1.76,2.44-2.63,4-4.39l7.8-1.83C787,343,786,345.35,784,350Zm-.93-5.49-3.19.72-2.81,6.28,3.26-.71Zm-5.25,18c.16-2.47.23-3.7.39-6.18l-2.78.56c-.14,2.48-.2,3.71-.34,6.19Z"/><path class="cls-27" d="M791.61,355.46l-3.19.67c-.39,3.89-.6,5.84-1,9.74l-3.61.83c.87-10,1.48-15,5.32-24.36,1.82-2,2.73-3,4.5-5l4.63-1.06c.42,1.53.63,2.28,1.07,3.81-3.47,9.44-4,14.4-5.26,24.31l-3.62.84C791,361.28,791.18,359.34,791.61,355.46Zm-2.42-4.93,3.12-.67,3.13-8.15-3,.69Z"/><path class="cls-27" d="M804.83,339.62a82,82,0,0,0-4.15,17.82l2.92-.66.87-5.47,3.72-.8c-.77,4.39-1.15,6.58-1.91,11l-7.45,1.76c-.78-1.38-1.18-2.07-2-3.45,1.36-10.13,2.86-15,6.32-24.7l7.62-1.75c.42,1.35.64,2,1.06,3.39l-1.55,4.86-3.68.79,1.14-3.41Z"/><path class="cls-27" d="M822.6,342.58c-1.45,6.38-2.13,9.51-3.57,15.86l-3.54.85c.88-4.2,1.32-6.3,2.21-10.5l-3.71.81c-.83,4.25-1.24,6.32-2.06,10.53l-3.53.84a199.89,199.89,0,0,1,6.81-28.65l3.55-.81c-1.49,5.06-2.67,7.45-3.69,12.63l.26-.05c2.44-5.44,4.26-8,7-13.4l3.56-.79c-2.67,5.31-4.26,8-6.77,13.39Z"/><path class="cls-27" d="M766.32,403.68l-2.92.85q-1.23-14.89-2.69-29.78l3.52-.8c.51,7.11.75,10.64,1.21,17.74.81-7.44,1.25-11.12,2.13-18.52l2.48-.56c.49,7,.71,10.54,1.13,17.55.84-7.35,1.28-11,2.24-18.33l3.47-.8q-2.4,15.36-4.32,30.78l-2.91.85c-.44-7.3-.68-11-1.2-18.28C767.57,392.11,767.13,396,766.32,403.68Z"/><path class="cls-27" d="M783.87,389l-2.8.78-.75,9.81-3.19.94c.62-10.08.94-15.13,1.62-25.19,1.21-2.13,1.83-3.19,3.07-5.39l4.71-1.07c.91,1.63,1.36,2.44,2.24,4.06-1.06,9.95-1.56,14.89-2.55,24.92l-3.19,1C783.36,394.85,783.53,392.9,783.87,389Zm-2.37-4.89,2.87-.76c.31-3.47.46-5.19.78-8.66l-2.95.73c-.29,3.47-.42,5.21-.7,8.69Z"/><path class="cls-27" d="M793.33,385.43l-.84.23c-.52,4.26-.78,6.38-1.29,10.64l-3.09.94c1.07-10.16,1.65-15.24,2.81-25.39,1.18-1.91,1.78-2.86,3-4.76L801,365.4c-1.12,7.44-1.69,11.16-2.78,18.6l-1.75.49c.21,4,.31,6.05.47,10.08l-3.1.94C793.61,391.48,793.56,389.46,793.33,385.43Zm3.42-13.63-2.61.65c-.39,3.07-.58,4.62-1,7.69l2.53-.67c.41-3,.61-4.61,1-7.67Z"/><path class="cls-27" d="M810.63,363.07c.73,1.57,1.07,2.35,1.78,3.91-1.63,8.11-2.43,12.16-4,20.27-1.16,1.86-1.72,2.78-2.85,4.66L798.82,394c1.8-11.7,2.73-17.51,4.61-29.17Zm-1.84,5.7-2.81.71c-1.25,7.2-1.87,10.81-3.09,18l2.6-.78c1.27-7.18,2-10.77,3.26-17.95Z"/><path class="cls-27" d="M817.39,388.13l-8,2.51c.72-3.58,1.06-5.38,1.83-9l3.19-.92-.76,3.51,1.92-.59,1.07-4.57c-1.37-2.28-2.08-3.43-3.57-5.74,1-4.61,1.44-6.92,2.42-11.54l8.75-2.13c-.84,3.39-1.25,5.09-2.13,8.51l-3,.78.71-3-2.2.57-.83,3.73c1.46,2.32,2.13,3.46,3.49,5.75C819.14,380.85,818.56,383.29,817.39,388.13Z"/></g><g class="cls-30"><path class="cls-33" d="M689.36,529.41a32.06,32.06,0,0,1-2.13,3c.8.63,1.21,1,2.13,1.62.07,2.93.16,4.43.45,7.44a38.77,38.77,0,0,1-3.54,3.93c-5.32.26-8.14.33-14.08.32a61.71,61.71,0,0,1,7.12-19.63,45.23,45.23,0,0,0,4-3.83,37.14,37.14,0,0,0,7-3.51A71.23,71.23,0,0,0,689.36,529.41Zm-3.2-4.43c-1.3.48-2,.7-3.39,1.14-.72,2.07-1.06,3.13-1.63,5.27,1.65-.32,2.46-.5,4-.87.36-2.25.57-3.36,1-5.54Zm-2.78,15.63c.1-2.13.19-3.19.41-5.32-1.46.22-2.19.33-3.71.52-.42,2-.59,3-.87,5.07,1.72-.06,2.55-.12,4.19-.27Z"/><path class="cls-33" d="M707.89,543.09A122.62,122.62,0,0,1,693.61,545c-2.13-11.53-2.53-17-1.79-27.21a26.7,26.7,0,0,0,2.38-1.86,99.9,99.9,0,0,0,3.3,22.87c1.52-.28,2.25-.44,3.67-.75a116.88,116.88,0,0,1-5.31-23.73,20.08,20.08,0,0,0,1.78-2.13C700,522.87,703.89,532.91,707.89,543.09Z"/><path class="cls-33" d="M721.15,539.6a67.26,67.26,0,0,1-10.52,2.93c-1.94-4.14-2.85-6.19-4.52-10.22,1.41-.54,2.06-.83,3.34-1.41.8,1.65,1.21,2.48,2.07,4.15.88-.33,1.3-.5,2.12-.86-1.22-2.23-1.82-3.34-2.95-5.53-3.63-2.4-5.24-3.51-8.05-5.55-1.83-5-2.61-7.52-4-12.35a17.15,17.15,0,0,0,2.66-6.23c1.92,4,2.93,6,5.1,10.11a18.81,18.81,0,0,1-1.51,2c-.66-1.42-1-2.13-1.61-3.52a13.88,13.88,0,0,1-1.06,1.43c.67,1.67,1.06,2.51,1.72,4.2,2.7,2,4.26,3.11,7.8,5.48C715.26,530.23,717.13,533.31,721.15,539.6Z"/><path class="cls-33" d="M706.82,501.9a19,19,0,0,1-.23,2.49c7.21,10.74,14.83,21.21,22.76,31.43-1.14.67-1.75,1-3,1.61-7.05-10-13.83-20-20.31-30.36a19.61,19.61,0,0,1-.81,2.34c-1.47-2.66-2.13-4-3.55-6.59a22.27,22.27,0,0,0,0-8.22C703.69,497.5,704.71,499,706.82,501.9Z"/></g><g class="cls-30"><path class="cls-27" d="M626.46,360.58a247.79,247.79,0,0,0,22.83-42.17,48.09,48.09,0,0,0,1.69,5.76c-3.4,11.86-8.09,23.78-15.12,34,2.19,3.19,3.27,4.77,5.39,8-2.29,3.31-3.42,5-5.66,8.25C632.06,368.79,630.24,366,626.46,360.58Z"/><path class="cls-27" d="M654.6,374.3c-1.22-2-1.85-3-3.11-4.95-4.11,5.83-6.15,8.73-10.16,14.49-1.4-2.38-2.12-3.56-3.57-5.92,8.17-11.8,15.8-21.28,17.66-35.89a35.51,35.51,0,0,0,3.65-2.18,73,73,0,0,0,5.63,7.35c1.66,4.26,2.57,6.39,4.59,10.64.14,13.52-14.22,26.76-21.6,37.11-1.35-2.45-2-3.66-3.41-6.08C648.36,383,650.42,380.13,654.6,374.3Zm2.84-13.43c1.3,1.95,1.94,2.93,3.19,4.9,3.76-5.23,3.06-7.45,3.1-12.22-1.78-1.86-2.62-2.79-4.26-4.68C659.16,353.63,661.17,355.68,657.44,360.87Z"/><path class="cls-27" d="M686.31,375.78q-13.41,10.55-26.77,21.16c1.71,3.19,2.54,4.82,4.18,8.06l-6.39,8.69c-2.6-5.4-3.94-8.07-6.74-13.35l4.11-8.84Q668,380.69,681.39,370c-1.94-3.19-4.63-4.51-8-7.44-.43-3.06-.7-4.59-1.35-7.63a131.15,131.15,0,0,0,16.16,13.6C689.36,371.18,688.66,372.67,686.31,375.78Z"/><path class="cls-27" d="M701,383.17c1.35,2.47,2,3.71,3.33,6.21q-20.56,18.63-40.9,37.49c-1.14-2.58-1.71-3.88-2.9-6.44,5.9-5.51,8.91-8.3,15-14,6-11.17,13.58-22.44,17-34.72a14,14,0,0,1,5.3,5.74l-9.81,17.44C693.13,390.26,695.74,387.94,701,383.17Z"/></g><g class="cls-30"><path class="cls-33" d="M769.26,419.24l-1.7,3.11,2.93,1.25,1.93,6.8-2.48,4.25L758.71,438l-6.8-23.81,2.35-4.41,11.32-3.36Zm-7.45-6.6L757.28,414l2.35,8.1,4.53-1.34Zm4.26,18.09-1.45-5.11-3.71,1.06,1.45,5.11Z"/><path class="cls-33" d="M787.88,435.25l-12.28,2.88-7.34-32.62,4.37-1.06L779,433l3.55-.85-6.38-28.51,4.35-1.07Z"/><path class="cls-33" d="M793.41,402.84l-3.19.74,7.52,33.84-3.6.82-7.52-33.84-3.32.75-.73-3.35,10.11-2.32Z"/><path class="cls-33" d="M809.4,398.15l-9.13,2.22,8.24,37.47-3.6.82-8.28-37.48-2.34.52-.73-3.35,15-3.19Z"/></g><g class="cls-30"><path class="cls-34" d="M661.13,446.48l-2.69.88,1.61,5.11-3.19,1.06-4.11-13.07,1.67-3.28,4.19-1.38,3.19,1.66L666,450.52l-3.19,1.07Zm-3.62-2.06,2.7-.89L658.78,439l-2.69.89Z"/><path class="cls-34" d="M676.39,450l-8.19,2.7-1.53-4.84,3.13-1.06.6,1.9,1.93-.63-.77-2.49-6.19-2.25-2-6.23,8-2.64,1.46,4.62L670,440l-.53-1.65-2,.67.64,2,6.19,2.27Z"/><path class="cls-34" d="M686.47,446.84l-8.19,2.7-1.52-4.84,3.13-1.06.59,1.9,1.94-.63-.78-2.49-6.19-2.16-2-6.24,8-2.63L683,436l-2.83.94-.52-1.65-2,.67.64,2,6.19,2.27Z"/><path class="cls-34" d="M685.1,436.34l4.63-1.52.92,2.94L686,439.28Z"/><path class="cls-34" d="M701.39,432.31l2.7,8.61L700.9,442l-1.79-5.67-3.19,1.06,1.79,5.67-3.19,1.07-4.87-15.55,3.19-1.07,2.13,6.94.23-.08.79-7.91,3.2-1.07-.73,7.9Z"/><path class="cls-34" d="M710.71,436l.92,2.95-5.32,1.74-.92-2.94,1.06-.35-3-9.64-1.06.35-.93-2.95,5.32-1.74.92,2.94-1.06.35,3,9.64Z"/><path class="cls-34" d="M722.25,434.67l-8.19,2.7-1.52-4.84,3.12-1.06.6,1.9,1.94-.63-.78-2.49L711.23,428l-2-6.23,8-2.64,1.45,4.62-2.83.93-.52-1.65-2.06.68.64,2,6.19,2.26Z"/><path class="cls-34" d="M733,433.16l-8.19,2.7L723.32,431l3.13-1.06.6,1.9,1.93-.63-.77-2.49L722,426.49l-2-6.23,8-2.64,1.46,4.62-2.83.93-.53-1.65-2,.68.64,2,6.19,2.26Z"/><path class="cls-34" d="M729.78,415.35l7.36-2.42.93,2.94-4.26,1.4.94,3,4-1.32.91,2.91-3.95,1.31,1.17,3.73,4.25-1.42.93,2.95-7.45,2.47Z"/><path class="cls-34" d="M745.74,416l-.82.27,1.77,5.62L743.58,423l-4.22-13.38,1.56-2.94,6.38-2.13,3.11,9.89-1.69.55,3.74,5L749.33,421Zm-.62-7.44-2.39.78,1.27,4.06,2.4-.79Z"/></g><g class="cls-30"><path class="cls-35" d="M658.77,434.62c4.68-3.54,15.07-15.18,19.76-18.72.6-.46.91-.71,1.54-1.21-3.34,3.11-9.58,10.38-15.11,16.3,1.85-.59,2.82-.91,4.8-1.59l-2.13,2.84C663.82,433.31,662,433.8,658.77,434.62Z"/><path class="cls-35" d="M687.23,408.44l1.9-1.75c.12,5.32-4,14.9-3.84,20.22l-4,1.25c.41-3.19,2.13-7.17,4.19-12.9a139.66,139.66,0,0,1-7.35,13.83l-1.26.38c-.33-2.64,1.45-6.47,4-11.8-3.31,5.74-5.85,9.84-7.15,12.77L670,431.5c2.78-4.4,10.45-15.1,13.24-19.52l1.86-1.65c-.51,2-1.76,4.57-3.19,8.92C684.89,414.23,686.4,411.35,687.23,408.44Z"/><path class="cls-35" d="M694.67,417.2l-2.89,1.24a21.08,21.08,0,0,0,.37,6.24l-4.25,1.4c-.51-4.62,1.73-11.28,2.23-17.66a18.11,18.11,0,0,0,1.28-3.78l2.13-2a13.67,13.67,0,0,1,2.25,1.67c1.86,6.56,1.69,12.61,4.12,17.75l-4.17,1.4A21.74,21.74,0,0,1,694.67,417.2ZM692,414l2.44-1.21c-.15-2.71-.2-4.12-.52-6.46l-1.76,1.2A58,58,0,0,1,692,414Z"/><path class="cls-35" d="M700.12,397.17c5,6.73,7.45,13.83,12.43,20.5-3.72,1.35-5.81,2.13-10.23,3.61C699,415,699.13,407,695.77,400.73,697.55,399.18,698.42,398.45,700.12,397.17Zm7.07,18.3c-2.67-5.06-3.86-8.63-6.53-13.7l-1.61,1.06c2.23,5.07,3.06,8.73,5.32,13.83Z"/></g><g class="cls-30"><path class="cls-31" d="M607.44,453.86l1.81,5.7-2.39.42-1.14-3.54-2.36.63,1.06,3.33-2.38.41-2.87-8.56,2.25-1,1.34,4.07h.17c.33-1.91.49-2.91.78-5l2.24-1c-.24,2.19-.37,3.25-.66,5.26Z"/><path class="cls-31" d="M613.94,456.41l.68,2.19-4,.7-.64-2,.79-.18-2.13-6.7-.76.29-.64-2L611,447l.69,2.2-.77.29,2.18,7.06Z"/><path class="cls-31" d="M615.39,447.82l2.34,7.74,1.9-.43-.73-2.43,2.34-.63,1.52,5.09-5,.88c-.88-.55-1.33-.82-2.2-1.34l-3.2-10.26,4.87-2.13c.8.47,1.22.71,2,1.22l.69,2.33-2.31.82-.47-1.56Z"/><path class="cls-31" d="M628.89,447l2.5,8.62-2.4.43-1.59-5.47-2.36.63,1.55,5.25-2.38.42-4.11-13.83,2.24-1,1.9,6.38h.17c.1-2.85.15-4.33.21-7.37l2.25-1c0,3.14,0,4.66-.11,7.61Z"/><path class="cls-31" d="M635.88,451.5l.91,3.19-4,.71-.9-3,.79-.19-2.88-10-.76.29-.88-3,3.76-1.65.92,3.2-.77.29,3,10.32Z"/><path class="cls-31" d="M637.71,435.82l2-.88,5.16,18.35-2.29.4c-2-3.93-3.07-5.84-5.07-9.57l2.86,10-2.13.38-4.79-16.79,2.13-.93c2,3.61,3,5.48,5,9.33Z"/><path class="cls-31" d="M649.73,448.44l-.87-3.13-1,.27-1-3.55,3.19-1,3.12,10.8L646.33,453,641,433.87l6.06-2.66,1.06,4-3.84,1.48,3.41,12.2Z"/></g><g class="cls-30"><path class="cls-31" d="M585.26,381.45l-1.71-2.35-5.12,3.9-2-2.77,21.27-16,4,.25,2.66,3.66-.93,4-26,19.69-2-2.8Zm1.25-4.61,1.72,2.35,12.66-9.5-1.72-2.35Z"/><path class="cls-31" d="M588.42,398.56l-5.19-7.15,4.85-3.71,2,2.74-1.91,1.46,1.23,1.69,2.49-1.91.9-8.9L599,378l5.07,7-4.64,3.53-1.79-2.46,1.66-1.27L598,383l-2,1.54-.91,8.93Z"/><path class="cls-31" d="M589.49,410l-5.19-7.15,4.85-3.7,2,2.73-1.9,1.46,1.22,1.69,8-6.15.74-7.3,6.25-4.77,5.07,7-4.63,3.53-1.79-2.47,1.66-1.26-1.3-1.79-2,1.54-.77,7.32Z"/><path class="cls-31" d="M607.36,403.18l1.73,2.39,6.38-4.89,2,2.78L596.8,419.19l-2-2.77,11.33-8.62-1.73-2.38L593.05,414l-2-2.76,20.71-15.69,2,2.76Z"/><path class="cls-31" d="M624.32,412.82,608.75,424.7,603.18,417l15.54-11.84Zm-14.64,7,9.8-7.45L617.77,410l-9.8,7.45Z"/><path class="cls-31" d="M604.65,430.42l20.86-16,2,2.78-17.91,13.69L617,441.16l-3,2.29Z"/><path class="cls-31" d="M629.58,420.12,637,430.17l-3,2.27-5.45-7.31-3,2.29,3.53,5.32-2.88,2.2-3.51-5.32L619,432.47l4.93,6.7-3,2.26L614,432Z"/></g><g class="cls-30"><path class="cls-31" d="M639.36,417.18l-.64-.57c-2.44,1.06-3.64,1.57-5.26,3.42-1.06-.88-1.59-1.3-2.54-2.12,3.91-4.6,9.12-3.68,14.2-7.12a18.2,18.2,0,0,0,3.13-.09c1.42,1.71,2.13,2.5,3.58,4.06-2.55,3.19-4.92,3.7-8.59,5.78l-1.43-1.23a10.18,10.18,0,0,0-2.89,5.08l-3-2.42A9.63,9.63,0,0,1,639.36,417.18Zm8.33-2.31c-.6-.61-.89-.92-1.46-1.54a23.29,23.29,0,0,1-4.26,2c.67.65,1,1,1.7,1.63a22.82,22.82,0,0,0,4.05-2.09Z"/><path class="cls-31" d="M648,427.91a14.69,14.69,0,0,0-1.69,2.23l-5.43-4.25a10.4,10.4,0,0,1,2.06-2.13l1.06.83c2.87-2.53,4.91-3.19,7.77-5.73l-.68-.66a10.61,10.61,0,0,0,2.06-2.12l3,3.19a15.21,15.21,0,0,1-1.69,2.23l-.68-.66c-2.51,2.68-4.26,3.56-6.76,6.24Z"/><path class="cls-31" d="M648.22,431.64c2.57-4.38,4.91-5.53,7.85-9.57,1-.09,1.48-.16,2.36-.29,1.41,1.57,2.13,2.38,3.52,4.15l-4.51,8.8c-1.56-1.47-2.46-2.26-4.31-3.86a30.15,30.15,0,0,0-1.91,3.11ZM659,426.1c-.56-.62-.85-.92-1.43-1.52-1.13,1.73-1.76,2.53-3,4.18.72.66,1.06,1,1.78,1.64C657.44,428.69,658,427.85,659,426.1Z"/></g><g class="cls-30"><path class="cls-31" d="M687.23,550.81c.7.81,1.06,1.22,1.7,2.05a20.38,20.38,0,0,0,6.32-3.41c.9.79,1.34,1.18,2.19,2-5.32,4.25-10.57,5.55-17.64,8.18-.64-1.33-1-2-1.61-3.28,2.74-.84,4.33-1.25,7.29-2.22-.62-.93-.94-1.38-1.6-2.28-2.9.79-4.45,1.07-7.12,1.76-.67-1.26-1-1.87-1.7-3.09,6.38-1.18,11.64-1.23,15.73-4.57a23.37,23.37,0,0,1,2.46,1.87A16.64,16.64,0,0,1,687.23,550.81Z"/><path class="cls-31" d="M690,564.39l-1.43-2.46c-2.58,1.26-3.9,1.86-6.32,3l-1.59-3.35c6-2.47,10.16-3.75,15.57-7.25a34.7,34.7,0,0,0,4-.17c1.06,1.07,1.57,1.61,2.6,2.69a31,31,0,0,1-1.17,3.77c-5.94,4.58-10,6.81-16.36,10.53-.67-1.34-1-2-1.65-3.37C686.09,566.49,687.42,565.79,690,564.39Zm2.28-4.34,1.47,2.22a64.48,64.48,0,0,0,5.45-3.48l-1.58-1.89a53.66,53.66,0,0,1-5.33,3.15Z"/><path class="cls-31" d="M695.63,572l-.47-.71c-2.93,2.13-4.42,3.13-7.17,5-.69-1.26-1.06-1.9-1.69-3.19,6.49-4.06,10.64-6.53,16.78-11.44,1.53-.18,2.29-.3,3.78-.56,1.56,1.64,2.34,2.46,4,4.06-4.49,4.18-7.23,6.52-12.41,10.78-.41-.56-.62-.84-1.06-1.41-2.49,3-3.75,4.55-6,7.44-.77-1.19-1.14-1.8-1.88-3C691.83,576.25,693.11,574.82,695.63,572Zm9.82-5.79c-.57-.66-.86-1-1.42-1.66-1.94,1.59-3,2.39-5.07,4,.54.75.82,1.13,1.38,1.88,2.1-1.67,3.14-2.51,5.1-4.19Z"/><path class="cls-31" d="M717,570.56c-.45,1.7-.69,2.58-1.17,4.37-5.53,5.32-8.51,8.63-14.06,14-1.77.42-2.64.61-4.34.89a43.32,43.32,0,0,1-4.83-5.9c7.67-6.25,12.54-10.57,19.71-17.27Q714.51,568.69,717,570.56Zm-4.25,3c-.76-.65-1.13-1-1.86-1.66-4.82,4.54-7.51,7.08-12.45,11.51.72.85,1.06,1.28,1.85,2.13,5-4.65,7.65-7.31,12.52-12Z"/></g><g class="cls-30"><path class="cls-31" d="M611,516.85l-1.7-.88c2.56-5.46,3.87-8.23,6.56-13.88l1.65,1.23-4,8.1,5.54-6.92,1.16.87c-1.47,3.2-2.19,4.78-3.62,7.91l5.2-6.72,1.64,1.22c-3.46,4.25-5.22,6.48-8.81,11l-1.7-.89c1.49-3.24,2.24-4.88,3.78-8.21Z"/><path class="cls-31" d="M623.3,514.47l1.52,1,2.81-4.53,1.7,1.26-6.62,10.73-1.89-1,2.73-4.41L622,516.6l-2.85,4.51-1.87-1,7.19-11.57,1.69,1.26Z"/><path class="cls-31" d="M635.1,516.47l-6,9.71-5.23-2.69L630.38,513Zm-6.68,6.93,3.89-6.29-1.47-1.06-4,6.44Z"/><path class="cls-31" d="M640.79,520.75l-5.38,8.7-5.24-2.69,5.9-9.58Zm-6.17,6.1,3.5-5.66-1.47-1.06L633.06,526Z"/><path class="cls-31" d="M636.54,530l4.55-7.35,1.91-.28,3.34,2.5-3.54,5.73-3.13-1.79L638.36,531Zm7.24-4.89-1.23-.84-1.89,3,1.33.82Z"/></g><g class="cls-30"><path class="cls-17" d="M755.23,304.46l-.76.58c3.86,5.81,5.74,8.68,5.45,11.93-.87,1.49-1.31,2.32-2.26,4.25-3-13.18-13.66-23.48-19.72-35.31a5.78,5.78,0,0,1,2-4.26c3.52.2,5.47.33,9.58.63-1.07,4.69,4.72,10.89,10.09,19.52a17.28,17.28,0,0,0-1.62.79c4.09,4.77,5.87,6.94,5.78,9.08a17.68,17.68,0,0,0-2,2.51C761.63,311.92,759.66,309.6,755.23,304.46ZM746,286.94c-1.33.07-2,.11-3.25.24a75,75,0,0,0,6.38,10.13,23.69,23.69,0,0,1,2.68-1.06,66.89,66.89,0,0,1-5.81-9.32Z"/><path class="cls-17" d="M768.24,300.8a23.48,23.48,0,0,0-2.75.44c1.81,3.84,2.59,5.69,1.7,7.87a9.41,9.41,0,0,0-2.13,1.39c1.7-5.88-8.73-15.78-11.61-24.47a6.82,6.82,0,0,1,3.79-3.19l7.33.61c1.19,1.18,2,1.91,3.66,3.48.07,7.56,6.76,15.45,3.45,20.91a14.63,14.63,0,0,0-2.54.5C770.21,306.21,769.62,304.46,768.24,300.8Zm-5.71-5.32c1.33-.1,2-.13,3.38-.15-1.51-3.42-2.38-5.2-2.95-8-1.74-.12-2.6-.17-4.25-.26a42,42,0,0,0,3.81,8.42Z"/><path class="cls-17" d="M786.55,289.19l-4.82-.38c-1.43,7.13,1.85,13.15-2.18,18.67l-3.47.1c3.82-5.4-.5-11.94.24-19.24l-4.93-.42a5.7,5.7,0,0,1,.93-3.79c6.39.55,9.7.84,16,1.35A9.3,9.3,0,0,0,786.55,289.19Z"/><path class="cls-17" d="M796.8,286.16a13.41,13.41,0,0,0-1.74,4,4.28,4.28,0,0,1-.9,1.56,8.44,8.44,0,0,1-3.39,2.45,5.06,5.06,0,0,1-2,.37c.47-3.87.63-5.86,2.67-8.76Z"/><path class="cls-17" d="M812.19,301a97.77,97.77,0,0,1-18.09,5,18.09,18.09,0,0,0,2.13-5.9c2.13-.28,3.29-.46,5.64-.91-.18.91-.29,1.34-.51,2.22,1.51-.35,2.28-.54,3.9-1,.2-1.07.29-1.6.45-2.68a21.26,21.26,0,0,1-8.15-3.63c.65-3.31.94-5,2.51-7.73,5.08.37,7.45.53,11.63.72,0,1.66,0,2.49.07,4.15-1.95.23-2.92.32-4.87.45.1-.7.16-1.06.29-1.75h-3.38c-.23.93-.34,1.39-.53,2.35A18.37,18.37,0,0,0,812,295Z"/></g><g class="cls-30"><path class="cls-13" d="M766.27,339.19c-.53,1.24-.78,1.84-1.23,3,1.32,3.29,2.12,4.8,4.17,6.21-.52,1.49-.74,2.13-1.07,3.26-5.55-3.47-6.07-12.59-8.64-20.54,0-2.29-.07-3.34-.18-5.07.72-1.19,1.07-1.7,1.67-2.65a19.13,19.13,0,0,1,2.33,1.23c2.9,6.17,3.45,12.76,8.92,15.72-.79,2-1.16,2.91-1.82,4.65C768.36,343.58,767.6,342.18,766.27,339.19Zm-2.95-2.12,1.22-2.57c-1-3-1.38-4.55-2.27-7.13-.46.77-.68,1.16-1.14,2C762,332.11,762.38,333.87,763.32,337.07Z"/><path class="cls-13" d="M778.9,324.09c-2.08,5.11-3.31,8-5.44,13.23-2.07-.94-2.86-1.91-4.25-4.07l1.82-4.09a10.81,10.81,0,0,0,1.59,1.51l1.2-2.82a10.93,10.93,0,0,1-2.12-1.66c-2.39,1.35-3.43,1.61-5.32,1.5-1.47-3.11-2.13-4.79-3.75-6.67,1.07-1.54,1.63-2.12,2.76-3.74a12.07,12.07,0,0,1,3.71,2.06l-1.29,2.25c-.45-.51-.69-.76-1.16-1.23l-.86,1.37c.53.69.8,1.06,1.32,1.84a10.21,10.21,0,0,0,5.32-1.93A11.4,11.4,0,0,0,778.9,324.09Z"/><path class="cls-13" d="M783.62,311.22a89.51,89.51,0,0,1-3.56,10,13,13,0,0,1-5.07-1c.67-1.54,1-2.29,1.59-3.71.71.12,1.06.17,1.86.24.37-.94.54-1.4.87-2.26a19.41,19.41,0,0,1-2.4-.15,28.4,28.4,0,0,1-5.64,4,17.71,17.71,0,0,0-5.19-2.13,55.72,55.72,0,0,0,3.19-5.23c1.82.11,2.59.16,4.13.23-.47.93-.7,1.39-1.18,2.3l-1.42-.18c-.35.62-.52.92-.87,1.51.7.15,1.06.23,1.71.4a35.79,35.79,0,0,0,5.32-4C779.3,311.31,780.45,311.31,783.62,311.22Z"/></g><g class="cls-30"><path class="cls-34" d="M592.55,300c10.55-6.52,21.27-11.46,32.34-17.1a47.42,47.42,0,0,0,5.69-.77c1.15,2.77,1.67,4.07,2.67,6.6-7.82,6.21-16.8,11.1-25.32,16.23-1.66-2.9-2.48-4.31-4.07-7a50,50,0,0,0-8.9,5.76C594,302.14,593.47,301.4,592.55,300Zm33.35-10.17-1.16-2.53q-6.74,3.87-13.83,7.06l1.54,2.84c5.46-2.87,8.31-4.19,13.43-7.37Z"/><path class="cls-34" d="M616.08,313.77l-2-3.62c-4.26,3.19-6.3,4.81-10,8.12l-2.85-4.61c8.78-7.07,18.6-12.76,27.88-19.15a53.42,53.42,0,0,0,5.84-1.42l1.54,4c-1.37,2.56-2.07,3.86-3.39,6.58q-11.82,11.7-23.65,23.49l-2.93-4.82C610.1,318.91,612.08,317.19,616.08,313.77Zm4.15-8.23,1.68,3.26c3.58-3,5.39-4.58,8.84-7.6l-1.22-2.75c-3.61,2.86-5.53,4.26-9.32,7.08Z"/><path class="cls-34" d="M620.44,332.17c-1.83,2.37-2.74,3.51-4.54,5.59-1.89-3.06-2.84-4.64-4.77-7.81,2-2,3-3.09,5-5.26l.87,1.52c6.5-7.23,10-11.47,16.53-18.71l-.47-1.06c2-2.13,3-3.19,5-5.26.76,2,1.16,3,2,5.12-1.79,2.13-2.71,3.19-4.54,5.58l-.49-1.06c-6.09,7.62-9.29,12.33-15.38,19.95Z"/><path class="cls-34" d="M642.78,315.05c.52,1.26.8,1.91,1.36,3.2-7.37,10.73-11.6,23.11-19.2,33.7-.94-1.41-1.41-2.13-2.4-3.67,3.89-7.57,5.62-13.28,9.76-22.8-4.86,8.13-7.24,12.77-12.25,18.89-1-1.54-1.47-2.33-2.47-3.94,8.13-10.16,14.62-21.46,22.65-31.69.49,1.22.73,1.84,1.25,3.1-4.48,7.57-6.47,12.93-10.2,22.75C635.79,326.24,638,321.32,642.78,315.05Z"/></g><g class="cls-30"><path class="cls-17" d="M696.14,474.3C691.54,467,688,461.67,683,453.79c-.13-1.63-.18-2.4-.19-3.86,2-.92,3.09-1.36,5.32-2.2,3.74,5.59,6.48,10.25,10.82,17.14a47.82,47.82,0,0,0-4.34,2.21c1.56,2.44,2.32,3.62,3.68,5.73C697.42,473.41,697,473.7,696.14,474.3ZM688,452.72c-.78.36-1.18.54-1.92.92l5.68,8.89c.72-.39,1.06-.58,1.86-1L688,452.74Z"/><path class="cls-17" d="M707.17,463.58c1.07,1.66,1.52,2.42,2.41,3.72a43,43,0,0,0-4.66,1.95c-.94-1.39-1.45-2.13-2.51-3.86l.93-.39c-3.43-5.47-5.59-9.26-9-14.73l-1,.37c-1.06-1.68-1.57-2.48-2.51-3.86,2-.69,3.06-1.07,5.19-1.69.9,1.3,1.39,2.06,2.41,3.72l-1.07.35c3.37,5.42,5.48,9.32,8.85,14.74Z"/><path class="cls-17" d="M698.44,444.37c3-.89,4.63-1.33,7.84-2.18a38.75,38.75,0,0,1,2.19,3.56c-1.8.51-2.69.76-4.44,1.29,1,1.68,1.51,2.6,2.57,4.5,1.64-.48,2.47-.73,4.15-1.2l2.53,4.76c-1.63.43-2.44.67-4,1.13,1.33,2.39,2,3.59,3.19,5.67,1.68-.49,2.53-.73,4.26-1.17.93,1.63,1.39,2.38,2.19,3.55-2.95.82-4.4,1.26-7.18,2.23C707.2,459.89,703,451,698.44,444.37Z"/><path class="cls-17" d="M714.62,444.06c2.93,5.31,4.88,9.91,7.81,15.27l2.65-.59c-.87-1.63-1.33-2.58-2.28-4.5l3.37-.77a56.07,56.07,0,0,0,4.21,8c-2.75.6-4.11.91-6.81,1.58a26.61,26.61,0,0,1-3.79-1.86c-4-6.92-7.22-14.58-10.78-19.73,3-.79,4.55-1.17,7.6-2a21.27,21.27,0,0,1,3.73,1.78c.75,1.38,1.15,2.21,2,3.94l-3.45.89c-.6-1.2-.9-1.78-1.45-2.83Z"/><path class="cls-17" d="M721.58,438.26c3.27-.84,4.89-1.26,8-2.13a23.11,23.11,0,0,1,1.83,3.44l-4.52,1.22c.83,1.71,1.29,2.72,2.2,4.8l4.26-1.07c.87,2.08,1.33,3.2,2.21,5.32l-4.17.94c1.15,2.64,1.73,4,2.77,6.09l4.44-.87a24.62,24.62,0,0,0,1.83,3.44c-3,.6-4.58.9-7.66,1.55C729.17,455.53,725.24,443.67,721.58,438.26Z"/><path class="cls-17" d="M744.58,431.5c3.19,4.82,7.17,20.13,10.38,24.94-3.3.73-5,1.06-8.51,1.79-3.29-5-7.18-18.9-10.46-23.9C739.59,433.25,741.33,432.68,744.58,431.5Zm5.79,22.2c-2.56-5.88-4.41-11.9-7-17.79l-2.63.85c2.57,5.83,4.41,11.7,7,17.51Z"/><path class="cls-17" d="M755.13,444.8c2,5.52,3.06,8.51,4.46,10.54-1.13.29-1.7.43-2.86.69-2.78-4.12-5.82-15.44-9.18-22.83a20.14,20.14,0,0,1,.58-3.08,40.05,40.05,0,0,0,4.16-1.88,16.83,16.83,0,0,1,1.82,3.59c-1.25.6-1.91.9-3.29,1.46.8,1.89,1.24,3.06,2.13,5.48,1.28-.48,1.91-.71,3.09-1.21.88,2.4,1.34,3.72,2.24,6.19C757.06,444.18,756.38,444.39,755.13,444.8Z"/></g><g class="cls-30"><path class="cls-17" d="M771.19,459.47c-1.71-.35-2.58-.55-4.38-1.06a85.28,85.28,0,0,1,.83,9.44c-2.12-.79-3.32-1.25-5.79-2.28,0-8.71-1.55-13.7-2.13-22.66,1.5-1.55,2.22-2.38,3.75-4.15,2.72,0,4.1,0,6.89.1,1.71,2,2.59,3.1,4.36,5.24.73,10.81,1.85,16,2.13,26.25a29.88,29.88,0,0,1-4.79-1.06C771.86,465.43,771.64,463.45,771.19,459.47Zm-5.12-6.6c1.8.37,2.67.54,4.41.81-.44-3.56-.69-5.32-1.06-8.94-1.78-.15-2.66-.24-4.45-.42.38,3.38.63,5.14,1.1,8.55Z"/><path class="cls-17" d="M791.57,468.13c-5.32,2.31-7.45,2.71-12.07,2.51-.06-3.84-.18-5.75-.45-9.57a31.94,31.94,0,0,0,4.69-.08c.06,1.49.08,2.24.13,3.71a25.34,25.34,0,0,0,2.88-.44c0-1.9,0-2.83-.1-4.73a95.82,95.82,0,0,1-8.17-7.44c-.39-5.08-.6-7.64-.73-13l13.57.38v9.11c-1.89.16-2.83.21-4.69.27,0-1.3,0-2-.07-3.3h-3.41c.06,1.67.09,2.5.16,4.12a46.12,46.12,0,0,0,8.26,6.68C791.66,461.06,791.68,463.31,791.57,468.13Z"/><path class="cls-17" d="M811.88,455.29c-8.33,6.18-11.49,8.35-17.15,11.32.06-3.32.07-4.88.07-8.09a56.23,56.23,0,0,0,5.59-2.25c0,1.06,0,1.6.05,2.69,1.48-.79,2.25-1.21,3.84-2.13l-.2-3.06c-4.06,0-5.75-.7-9.16-2.75,0-4.25-.06-6.46-.07-11.45,5.31.12,8,.18,13.08.18.55,2.59.79,3.65,1.23,5.58-2.12.6-3.19.85-5.19,1.31-.07-.89-.1-1.35-.18-2.31-1.42.2-2.13.29-3.55.45,0,1.31.06,2,.11,3.19,3.58,1.67,5.41,2.13,10,1.36C810.93,451.65,811.21,452.66,811.88,455.29Z"/></g><g class="cls-30"><path class="cls-13" d="M545.66,291.42c2.34,8.07,3.84,13.76,6.19,21.85,1.12-.64,1.68-1,2.78-1.63-.67-2.36-1.06-3.66-1.75-6.27,1.41-.72,2.12-1.06,3.53-1.85,1.35,5.05,2,7.57,3.08,11.18a79,79,0,0,1-6.94,4.84,26.76,26.76,0,0,1-3.71-2.63c-2.93-10-5.69-20.13-8.76-30.12l8.43-2.13c1.45,1.13,2.19,1.76,3.64,3,.56,2,.85,3.08,1.46,5.32l-3.74,1.4c-.46-1.65-.69-2.46-1.12-4Z"/><path class="cls-13" d="M564.61,280.87c1.71,7.54,3.95,17.66,5.66,25.2-3.56,2.87-5.32,4.35-8.86,7.13-2.73-9.89-5.21-19.84-7.94-29.73Zm1.51,23.41c-1.59-6.59-2.72-11.49-4.32-18.09l-3.26,1.07c1.76,6.93,3,12,4.76,19Z"/><path class="cls-13" d="M574.27,278.66l4.06-.94c-.25,5.82,1.07,14.9,1.07,21.41-2.13,1.47-3.19,2.23-5.18,3.81-2.13-6.15-4.68-15.68-7.23-22.61l4.11-.95c1.55,4.9,3,10.58,4.85,17.13C575.23,289.29,574.4,283.51,574.27,278.66Z"/><path class="cls-13" d="M580.73,277.17,590,275c.08.87.14,1.43.31,2.68-2.13.57-3.19.86-5.24,1.45.19,1.36.31,2.13.54,3.71,2-.66,2.95-1,4.95-1.58.21,1.46.33,2.22.55,3.7-2,.67-3,1.07-4.85,1.79.31,2,.46,3,.69,4.69a55.9,55.9,0,0,1,5.2-2.2c.17,1.25.24,1.82.31,2.68a51.26,51.26,0,0,0-8.8,4.47C583,291.08,581.35,282.49,580.73,277.17Z"/><path class="cls-13" d="M599.17,284l-1.06.26c.45,2.66.67,4,.84,5.54-1.39.35-2.76.77-4.11,1.25-.33-3.77-1.44-9.57-2.12-14.74a20.62,20.62,0,0,1,2.59-2.53c3.19-.77,4.73-1.16,7.83-1.95.59,2.86,1.34,6.14,2.41,10.88-.95.14-1.42.23-2.34.4a28.75,28.75,0,0,0,4,5.26,44.41,44.41,0,0,0-4.59.63A26.8,26.8,0,0,1,599.17,284Zm.58-8.64-3,.72c.25,1.66.43,2.67.76,4.65,1.24-.31,1.87-.45,3.12-.73-.37-2-.56-3-.86-4.6Z"/></g></g><path id="waterline" class="cls-36" d="M371.55,272.48s202.38-13.37,229.25-7.9,24.94,11.55,48,10.94,118-12.16,148.67-5.47,162.1,7.91,186.09,3.05c0,0-147.39,15-165.28,13.24-29.45-2.9-73.57-10.81-112.89-7.16s-114.12,24.32-165,8.51S371.55,272.48,371.55,272.48Z"/></g></svg>